<?xml version="1.0" encoding="UTF-8" standalone="no"?>
<svg
   xmlns:osb="http://www.openswatchbook.org/uri/2009/osb"
   xmlns:dc="http://purl.org/dc/elements/1.1/"
   xmlns:cc="http://creativecommons.org/ns#"
   xmlns:rdf="http://www.w3.org/1999/02/22-rdf-syntax-ns#"
   xmlns:svg="http://www.w3.org/2000/svg"
   xmlns="http://www.w3.org/2000/svg"
   xmlns:xlink="http://www.w3.org/1999/xlink"
   id="SVGRoot"
   version="1.1"
   viewBox="0 0 500 500"
   height="500px"
   width="500px">
  <defs
     id="defs1458">
    <linearGradient
       osb:paint="solid"
       id="linearGradient2061">
      <stop
         id="stop2059"
         offset="0"
         style="stop-color:#000000;stop-opacity:1;" />
    </linearGradient>
    <linearGradient
       id="linearGradient2033">
      <stop
         id="stop2029"
         offset="0"
         style="stop-color:#000000;stop-opacity:1;" />
      <stop
         id="stop2031"
         offset="1"
         style="stop-color:#000000;stop-opacity:0;" />
    </linearGradient>
    <radialGradient
       gradientUnits="userSpaceOnUse"
       gradientTransform="matrix(1,0,0,1.7126559,0,135.58578)"
       r="120.46985"
       fy="-190.2542"
       fx="-475.61761"
       cy="-190.2542"
       cx="-475.61761"
       id="radialGradient2138"
       xlink:href="#linearGradient2033" />
  </defs>
  <metadata
     id="metadata1461">
    <rdf:RDF>
      <cc:Work
         rdf:about="">
        <dc:format>image/svg+xml</dc:format>
        <dc:type
           rdf:resource="http://purl.org/dc/dcmitype/StillImage" />
        <dc:title></dc:title>
      </cc:Work>
    </rdf:RDF>
  </metadata>
  <g
     id="layer1">
    <rect
       y="-11.137188"
       x="-16.162441"
       height="553.5636"
       width="546.3432"
       id="rect2104"
       style="opacity:0.98000004;fill:#191910;fill-opacity:0;stroke:none;stroke-width:50;stroke-linecap:round;stroke-linejoin:round;stroke-miterlimit:4;stroke-dasharray:none;stroke-dashoffset:0;stroke-opacity:1;paint-order:normal" />
    <path
       transform="rotate(11.335211)"
       d="M 291.55129,62.02844 A 90.254936,90.254936 0 0 1 236.23357,176.96953 90.254936,90.254936 0 0 1 121.22329,121.79579 90.254936,90.254936 0 0 1 176.25297,6.7165122 90.254936,90.254936 0 0 1 291.40107,61.602033"
       id="path2065"
       style="opacity:1;fill:#ff0f2f;fill-opacity:1;stroke:#151515;stroke-width:50;stroke-linecap:round;stroke-linejoin:round;stroke-miterlimit:4;stroke-dasharray:none;stroke-dashoffset:0;stroke-opacity:1;paint-order:normal" />
    <path
       transform="rotate(11.335211)"
       d="M 280.71511,310.36112 A 89.051537,89.051537 0 0 1 226.13495,423.76966 89.051537,89.051537 0 0 1 112.65815,369.33157 89.051537,89.051537 0 0 1 166.95409,255.78669 89.051537,89.051537 0 0 1 280.56688,309.9404"
       id="path2067"
       style="opacity:1;fill:#00cdfa;fill-opacity:1;stroke:#151515;stroke-width:50;stroke-linecap:round;stroke-linejoin:round;stroke-miterlimit:4;stroke-dasharray:none;stroke-dashoffset:0;stroke-opacity:1;paint-order:normal" />
    <path
       id="path2069"
       d="m 95.554397,146.76707 c 0,0 -6.654151,68.91332 22.504373,110.87284 9.73593,14.01014 50.41845,28.65029 68.71188,48.97719 25.78181,28.64766 28.98631,61.85218 28.98631,61.85218"
       style="opacity:1;fill:none;stroke:#151515;stroke-width:50;stroke-linecap:round;stroke-linejoin:round;stroke-miterlimit:4;stroke-dasharray:none;stroke-opacity:1" />
    <path
       id="path2071"
       d="m 299.7472,368.30995 0.18945,-228.97419"
       style="opacity:1;fill:none;stroke:#151515;stroke-width:50;stroke-linecap:round;stroke-linejoin:round;stroke-miterlimit:4;stroke-dasharray:none;stroke-opacity:1" />
    <path
       d="M 459.56018,137.34829 A 80.341393,80.341393 0 0 1 410.31852,239.66433 80.341393,80.341393 0 0 1 307.9409,190.55084 80.341393,80.341393 0 0 1 356.92615,88.111792 80.341393,80.341393 0 0 1 459.42645,136.96872"
       id="path2065-5"
       style="opacity:1;fill:none;fill-opacity:1;stroke:#151515;stroke-width:50;stroke-linecap:round;stroke-linejoin:round;stroke-miterlimit:4;stroke-dasharray:none;stroke-dashoffset:0;stroke-opacity:1;paint-order:normal" />
  </g>
</svg>
