<svg version="1" xmlns="http://www.w3.org/2000/svg" width="933.333" height="933.333" viewBox="0 0 700.000000 700.000000"><path d="M245 22.2c-14.6 1.6-20.1 2.5-27 4.4-39.6 11.2-71.1 33.2-93.2 65.4-10.9 15.8-20.9 39.3-24.3 57.1-.2 1.1-.6 2.8-.9 3.7-1.4 4.6-2 14.3-2 29.7 0 24 1.2 80.6 1.7 83 .2 1.1.8 5.1 1.2 8.9.7 7.1.8 8 2.5 17.6 1.2 6.7 1.8 9.7 2.6 13.2.3 1.5.5 3 .5 3.3 0 .2.5 1.9 1 3.7.6 1.8 1.2 4.2 1.4 5.3 1.1 4.7 6.8 22.1 7.6 22.9.5.6.9 1.7.9 2.5 0 .9 2.5 6.7 5.5 13 3 6.2 5.5 11.7 5.5 12.1 0 .4-1.9 1.2-4.2 1.9-6.8 2-25.6 11.3-33.8 16.6-18.4 12-34.4 27.8-47 46.4-7.1 10.5-18.1 35-20.5 45.7-4.5 19.7-4.7 21.5-5 38.9-.3 14.4 0 20.2 1.6 29 7.4 42.4 31.7 80.9 66 104.8 19.8 13.8 47.9 24.5 71.8 27.5 11.4 1.4 45.2.5 48.1-1.3.4-.3 2.5-.7 4.6-1.1 14.7-2.2 39.5-12.9 56.4-24.2 37-24.7 60.5-62.4 68.4-109.5.9-5.4 2.1-21.2 2.1-27.7 0-6.7-.5-10.1-3.1-23-.9-4.1-1.8-8.5-2-9.8-1.1-5.8-7-21.7-11.4-30.7-12.7-26.3-32.7-49.5-58.7-68.1-7.1-5.1-34.9-22.4-54.6-33.9-7.8-4.5-13-9.2-16.4-14.8-1.9-3.2-3.3-6-3.1-6.3.3-.2 3.7.9 7.6 2.6 12.1 5.1 25.8 9 41.2 11.6 1.4.2 9.5.6 18 .8 17.2.5 25.5-.2 40-3.5 2.5-.6 5.2-1.2 6-1.4 2.2-.5 14.2-4.4 16.5-5.5 30.4-13.6 47.1-25.7 65.9-47.5l2.5-3v119c-.1 65.4.1 120 .4 121.3 1.2 4.9 5.7 13.3 8.9 16.6 10.8 11 27.9 14.1 41.3 7.3 6.1-3.1 13.8-11.5 16.5-18.3l2.4-5.9.2-83c.2-45.7.4-84.1.4-85.3v-2.4l3.3 2.1c10.6 7.1 33.2 16.4 46.4 19.2 15.9 3.3 40.6 4.5 52.3 2.5 2.9-.5 11.2-2.2 15.5-3.1 9.5-1.9 26.9-9 37.6-15.2 56.3-32.5 84.7-96.4 70.9-159.4-11.1-50.8-48.6-92.3-98.5-108.7-15-5-27.4-6.7-47.5-6.6-26.9.1-50.1 6.5-73 20.2-15.5 9.3-33.3 25.2-42.6 38.2-2 2.8-3.8 4.9-4 4.7-.2-.2-1.7-4.6-3.3-9.8-11.4-36.6-34.5-67.5-66-88.1-18-11.8-43.8-21.6-64.1-24.4-13.3-1.8-27.4-2.3-37-1.2zm310.1 132.1c14.5 3.5 26.4 10.2 36.8 20.7 17.4 17.8 25 40.3 21.7 65-.4 3-.7 5.8-.7 6.2.1.5-1.1 4.1-2.5 8-4.5 12.3-10 21.2-18.5 29.5-15.3 15-31.7 22.1-52.2 22.8-7.1.2-10.8-.2-20.5-1.9-15.1-2.8-32.9-14.6-44-29.1-9.5-12.6-14.3-26.9-14.8-44-.5-21.6 5.7-38.5 20-54.1 11.7-12.8 28.9-22.4 43.5-24.1 2.6-.3 4.8-.7 5-.9 1-.9 20.3.5 26.2 1.9z"/></svg>