<svg version="1" xmlns="http://www.w3.org/2000/svg" width="346.667" height="346.667" viewBox="0 0 260.000000 260.000000"><path d="M120.5 33.1c-10.6 2.3-17.4 4.9-26.9 10.5-18.8 11-33.9 32.1-37.8 52.8-.7 3.6-1.6 6.6-2 6.6-.5 0-.8-.4-.8-1 0-1.4-3.6-3.1-5.4-2.4-1.3.5-1.2 1.1.7 3.7 2.6 3.6 4.9 9.7 3.7 9.7-.4 0-1-1.1-1.4-2.3-.9-3.5-4.5-7.7-6.7-7.7-1.1 0-2.8 1.4-4 3.2-1.8 2.9-2 4.6-1.7 14.3.3 9.4.7 11.6 2.7 15.2 3.8 6.6 7.5 6.9 10.4.8 1.2-2.5 1.6-5.9 1.4-12.9-.1-5.5.1-8.6.6-7.4.9 2.5 1 13 .2 17.2-.3 1.6-1.2 4.1-2 5.7-2.1 3.9-1.9 4.2 1.4 3.6 2.7-.6 2.9-.4 3.5 3.9.3 2.5 1.8 7.9 3.2 12.1 8.1 23.4 26.8 41.8 50.9 49.8 7.2 2.4 8.2 2.5 9.5.9 1.9-2.2.4-4.2-4.2-5.5-19.5-5.2-38.4-20.8-47-38.9-1.1-2.5-2.5-5.4-3.1-6.5-1.3-2.7 0-1.3 5.6 6.1 12 15.9 30.3 27 51.3 31.1 7.8 1.6 28.4.7 36.7-1.6 19.2-5.1 40.4-20 47.2-33.1 2.9-5.6 3.1-16.3.5-23.4-3.2-8.5-12.2-17.2-23.1-22.4-13.2-6.3-20.1-7.7-36.9-7.7-8 0-16.1.4-18 .8-10 2.2-15.7 4.6-11.5 4.8 1.1 0 3.1.3 4.5.6 3.1.7 6.8.7 19.5 0 25.6-1.3 49.2 10.8 55.3 28.3 2.9 8.3 2.8 14.2-.2 20.5-4.1 8.7-12.5 15.7-24.3 20.1-17.1 6.5-35.6 6.8-56.9 1.1-.7-.1-4.2-1.8-8-3.7-12.9-6.6-28.8-24.9-34.7-39.9-5.2-13.6-6.7-33.1-3.2-42.9 2.4-6.5 9.3-15.3 16-20.4 26.5-20 74.7-23.2 106.9-7.1 9.2 4.6 11.9 6.5 19.4 13.7l6.3 6.1-2.7-6.5C206 60.9 188 43.8 165.7 36c-3.4-1.3-7.5-2.4-9.2-2.6-1.6-.2-3.9-.7-5-1.1-4.3-1.4-23-1-31 .8z"/></svg>