<!DOCTYPE svg PUBLIC "-//W3C//DTD SVG 20010904//EN" "http://www.w3.org/TR/2001/REC-SVG-20010904/DTD/svg10.dtd">
<svg version="1.0" xmlns="http://www.w3.org/2000/svg" width="226px" height="127px" viewBox="0 0 2260 1270" preserveAspectRatio="xMidYMid meet">
<g id="layer101" fill="#020100" stroke="none">
 <path d="M957 1166 c-81 -34 -134 -71 -157 -109 -43 -70 -60 -66 338 -69 l357 -3 3 -50 c2 -27 9 -53 15 -57 7 -4 52 -8 100 -8 l88 0 -18 31 c-10 17 -60 71 -111 120 -71 70 -110 99 -170 127 l-77 37 -155 3 c-145 2 -159 1 -213 -22z"/>
 <path d="M575 1034 c-38 -8 -165 -27 -282 -43 -117 -16 -218 -33 -225 -37 -26 -16 60 -25 287 -31 l230 -5 0 -37 0 -36 85 -7 c47 -4 202 -12 344 -17 142 -5 263 -14 269 -20 17 -17 -3 -75 -33 -99 l-29 -23 -11 21 c-13 24 -96 80 -118 80 -9 0 -13 -7 -9 -19 4 -17 1 -18 -30 -9 -18 5 -41 8 -51 7 -9 -1 -28 3 -42 9 -33 15 -154 42 -189 42 -15 0 -32 -5 -37 -10 -7 -7 -27 -5 -60 5 -27 8 -63 14 -79 14 -17 0 -54 5 -84 12 -40 9 -58 9 -72 1 -15 -10 -28 -6 -70 21 -45 27 -63 33 -128 35 -67 3 -78 1 -95 -17 -18 -20 -18 -25 23 -238 23 -120 47 -230 53 -245 8 -23 23 -32 75 -48 36 -11 92 -20 125 -20 56 0 63 3 93 34 l32 35 11 -23 c7 -16 27 -28 69 -39 78 -22 106 -21 128 3 18 19 18 28 7 118 -17 132 -16 133 23 88 39 -44 42 -57 19 -77 -13 -11 -15 -26 -11 -72 3 -32 8 -61 11 -64 9 -9 190 -44 216 -42 14 2 41 -7 60 -19 36 -23 88 -38 97 -28 3 3 23 -4 44 -14 49 -26 64 -25 86 3 17 23 18 23 33 6 21 -25 100 -38 100 -16 0 27 33 23 95 -10 81 -44 133 -45 169 -2 14 17 26 42 26 56 0 36 -60 93 -97 93 -17 0 -38 9 -48 20 -10 11 -16 20 -14 20 2 0 36 -9 74 -19 l70 -18 30 -98 c18 -59 38 -102 50 -111 20 -15 137 -54 161 -54 8 0 14 7 14 15 0 8 7 15 15 15 18 0 19 21 4 90 -19 90 -4 74 20 -21 13 -52 27 -98 31 -102 4 -5 39 -4 78 1 50 7 76 16 92 32 l23 23 -22 36 c-38 62 -104 203 -122 261 -12 41 -22 56 -39 60 l-22 5 21 19 c29 26 26 49 -10 91 -25 28 -38 35 -67 35 -19 0 -43 -6 -51 -14 -14 -13 -22 -12 -65 6 -39 17 -52 19 -67 10 -15 -10 -24 -9 -42 2 -12 8 -41 17 -64 21 -36 6 -43 4 -43 -9 0 -21 -13 -20 -41 4 l-24 20 215 -5 c118 -3 251 -8 296 -11 l81 -5 25 78 c14 43 24 80 21 83 -2 3 -168 7 -368 10 -232 3 -368 9 -374 15 -7 7 -8 22 -1 45 18 64 27 63 -382 58 -246 -2 -368 0 -368 7 1 5 7 21 15 35 25 43 19 50 -37 49 -29 0 -84 -7 -123 -15z m854 -330 c1 -1 -9 -18 -23 -37 -14 -19 -26 -40 -26 -48 -1 -8 -10 4 -21 26 -10 22 -31 48 -46 57 -26 16 -25 16 43 11 38 -3 71 -7 73 -9z m-440 -143 l9 -43 -34 33 c-19 18 -34 36 -34 39 0 9 44 29 47 21 1 -3 7 -26 12 -50z m545 -27 c9 -24 7 -28 -9 -14 -17 14 -20 30 -6 30 5 0 12 -7 15 -16z"/>
 <path d="M748 283 c-21 -2 -38 -7 -38 -12 0 -12 82 -86 132 -120 87 -58 170 -83 295 -89 94 -4 122 -1 180 17 87 27 187 81 191 104 5 23 -28 35 -39 14 -8 -13 -27 -15 -117 -13 -59 2 -134 11 -167 20 -33 9 -98 23 -145 31 -47 8 -116 24 -155 35 -38 11 -77 19 -85 18 -8 -1 -32 -3 -52 -5z"/>
 </g>
<g id="layer102" fill="#4f380e" stroke="none">
 <path d="M957 1166 c-81 -34 -134 -71 -157 -109 -43 -70 -60 -66 338 -69 l357 -3 3 -50 c2 -27 9 -53 15 -57 7 -4 52 -8 100 -8 l88 0 -18 31 c-10 17 -60 71 -111 120 -71 70 -110 99 -170 127 l-77 37 -155 3 c-145 2 -159 1 -213 -22z"/>
 <path d="M130 849 c0 -25 82 -436 92 -461 8 -23 23 -32 75 -48 66 -20 167 -26 191 -11 19 12 26 80 13 129 -7 23 -27 57 -45 75 l-33 33 25 12 c14 6 27 10 29 8 5 -5 49 -125 69 -189 10 -32 22 -51 37 -56 40 -15 147 -34 154 -28 5 5 -7 131 -32 352 -1 11 -3 35 -4 52 -1 27 -7 35 -33 46 -18 8 -50 17 -70 21 -38 7 -38 6 -39 -26 l-1 -33 -10 32 c-12 35 -17 38 -92 48 -47 6 -48 6 -44 -17 3 -13 9 -31 13 -41 4 -10 -17 7 -48 36 -40 39 -67 57 -100 66 -60 14 -147 15 -147 0z m208 -164 l37 -34 -27 -1 c-17 0 -34 9 -47 26 -42 54 -18 60 37 9z m260 -77 c7 -7 12 -28 11 -47 l-1 -36 -11 32 c-7 17 -15 35 -19 39 -10 10 -10 24 0 24 4 0 13 -5 20 -12z m-233 -126 c-19 -4 -35 13 -35 37 0 10 8 7 26 -10 22 -20 23 -25 9 -27z"/>
 <path d="M713 765 c-9 -25 6 -115 27 -154 10 -20 39 -61 64 -91 25 -30 46 -58 46 -62 0 -5 -14 -8 -31 -8 l-32 0 6 -61 c3 -33 8 -63 11 -66 8 -8 176 -42 209 -43 l29 0 -7 53 c-9 63 -28 98 -118 205 -68 82 -78 104 -39 83 12 -6 36 -11 56 -11 30 0 35 4 39 28 3 23 4 22 6 -8 0 -19 16 -91 35 -160 19 -69 36 -141 38 -160 4 -41 47 -71 108 -76 21 -1 52 -9 68 -18 63 -32 66 -28 59 87 l-6 102 19 -50 c11 -27 23 -65 26 -83 7 -37 52 -72 92 -72 21 0 22 3 16 38 -3 20 -13 55 -20 77 -20 59 -17 66 8 15 43 -91 137 -160 216 -160 34 0 41 4 52 29 9 24 9 34 -4 58 -19 38 -57 63 -94 63 -22 0 -36 9 -54 33 -30 39 -58 119 -58 164 0 28 4 33 23 33 13 0 34 -11 47 -25 l24 -25 -32 6 -31 6 6 -38 c9 -64 23 -77 103 -98 53 -13 74 -15 80 -7 3 7 19 -30 35 -80 40 -130 49 -145 98 -162 82 -29 127 -40 134 -34 3 4 1 31 -5 59 -7 29 -19 112 -27 183 -9 72 -17 137 -18 145 -2 12 8 14 44 12 33 -3 51 1 63 13 24 25 20 44 -20 81 -26 25 -44 34 -70 34 -44 0 -55 -23 -25 -52 13 -11 20 -27 17 -35 -3 -8 -7 -18 -7 -21 -1 -4 -4 7 -8 23 -5 24 -18 37 -66 62 -79 43 -89 42 -82 -2 7 -43 -2 -44 -28 -3 -14 23 -33 36 -65 45 -53 15 -69 6 -52 -32 7 -14 16 -35 21 -47 14 -37 30 -76 43 -103 6 -14 8 -28 5 -31 -4 -4 -11 5 -17 20 -43 115 -105 202 -164 231 -42 21 -62 19 -98 -14 -28 -25 -32 -35 -38 -102 -7 -79 -6 -79 -32 25 -10 39 -69 106 -93 106 -6 0 -21 -21 -33 -47 -15 -35 -21 -42 -21 -25 -2 51 -45 99 -115 125 -17 7 -18 4 -13 -30 4 -21 3 -33 -1 -28 -8 11 -77 45 -92 45 -5 0 -7 -15 -4 -32 4 -25 3 -29 -5 -18 -6 8 -11 23 -11 33 0 21 -28 33 -123 53 -87 18 -106 18 -114 -1z m426 -340 c17 -66 34 -131 37 -145 4 -14 4 -22 0 -19 -6 6 -76 265 -76 283 0 25 11 -10 39 -119z m670 -25 c0 -23 -1 -23 -9 -5 -5 11 -9 31 -9 45 0 23 1 23 9 5 5 -11 9 -31 9 -45z"/>
 <path d="M1930 471 c0 -7 4 -20 9 -30 5 -9 29 -91 52 -181 23 -91 45 -169 49 -173 7 -8 147 7 156 16 3 3 -4 20 -15 38 -38 67 -100 194 -106 222 -4 15 -11 30 -16 33 -5 3 -9 15 -9 27 0 36 -13 45 -68 53 -37 5 -52 3 -52 -5z"/>
 <path d="M748 283 c-21 -2 -38 -7 -38 -12 0 -12 82 -86 132 -120 87 -58 170 -83 295 -89 94 -4 122 -1 180 17 87 27 187 81 191 104 5 23 -28 35 -39 14 -8 -13 -27 -15 -117 -13 -59 2 -134 11 -167 20 -33 9 -98 23 -145 31 -47 8 -116 24 -155 35 -38 11 -77 19 -85 18 -8 -1 -32 -3 -52 -5z"/>
 </g>
<g id="layer103" fill="#dd000e" stroke="none">
 <path d="M984 1169 c-102 -32 -181 -95 -199 -158 l-7 -24 268 7 c148 4 313 4 368 0 l98 -7 -6 -52 -6 -52 38 -7 c20 -3 63 -6 95 -6 57 0 58 0 46 23 -38 70 -177 199 -261 243 -109 56 -314 72 -434 33z"/>
 <path d="M130 850 c0 -26 81 -436 92 -462 8 -23 23 -32 75 -48 67 -21 167 -26 192 -11 7 5 15 29 18 54 6 52 -20 117 -62 157 l-25 23 26 14 c15 7 27 13 29 13 5 0 43 -102 66 -173 15 -49 27 -70 43 -76 36 -13 146 -34 151 -29 3 3 -5 103 -18 224 l-23 218 -59 18 c-77 23 -75 23 -75 -14 l-1 -33 -14 32 c-11 27 -21 33 -70 43 -31 6 -59 9 -62 6 -3 -3 2 -24 11 -48 l17 -43 -39 41 c-70 74 -113 96 -197 102 -56 3 -75 1 -75 -8z m211 -162 l44 -33 -30 -3 c-22 -3 -35 3 -52 23 -46 53 -25 59 38 13z m266 -123 l3 -50 -20 50 c-24 60 -24 57 -2 53 13 -2 18 -15 19 -53z m-227 -82 c0 -7 -4 -13 -9 -13 -17 0 -41 31 -41 52 0 21 0 21 25 -2 14 -13 25 -29 25 -37z"/>
 <path d="M734 704 c8 -91 27 -134 93 -211 l46 -54 -43 7 -43 7 6 -62 c3 -35 8 -65 11 -68 7 -8 176 -42 209 -43 31 0 32 6 15 79 -11 50 -18 60 -161 235 -31 39 -31 39 -7 33 14 -4 44 -10 68 -13 47 -8 48 -6 31 62 -14 54 -33 68 -119 83 -36 7 -76 15 -89 18 l-24 6 7 -79z"/>
 <path d="M1060 745 c0 -3 7 -16 15 -28 8 -13 39 -113 69 -222 29 -110 57 -207 60 -216 8 -19 -23 -36 -34 -19 -4 7 -31 106 -60 221 -50 196 -55 211 -81 225 -38 19 -38 19 -39 -23 0 -21 -1 -58 -2 -83 0 -31 11 -70 36 -127 28 -64 36 -94 36 -142 0 -58 1 -61 33 -77 17 -10 48 -18 68 -20 20 -1 51 -9 67 -18 17 -9 39 -16 48 -16 18 0 18 13 -1 210 -4 49 -1 42 28 -55 17 -60 36 -116 40 -122 8 -13 86 -38 94 -30 2 3 -18 83 -45 179 -28 95 -55 192 -62 215 -8 31 -21 49 -48 68 -20 14 -39 25 -43 25 -3 0 -14 -21 -24 -47 l-18 -48 -16 49 c-14 42 -23 52 -68 78 -29 16 -53 26 -53 23z"/>
 <path d="M1410 663 c-43 -39 -50 -118 -22 -229 40 -157 141 -264 250 -264 32 0 41 5 50 25 17 36 16 40 -19 79 -20 24 -43 38 -67 42 -20 4 -47 16 -60 27 -24 22 -76 171 -68 194 9 21 60 15 84 -10 30 -31 28 -37 -8 -24 -16 6 -31 9 -34 6 -3 -2 1 -27 8 -54 12 -49 13 -50 77 -72 71 -24 99 -28 99 -13 0 18 -92 204 -118 238 -27 35 -98 82 -125 82 -9 0 -30 -12 -47 -27z"/>
 <path d="M1616 642 c-2 -4 19 -71 49 -147 29 -77 61 -169 71 -205 10 -36 24 -76 31 -90 7 -14 13 -30 13 -37 0 -7 9 -17 20 -23 23 -12 163 -51 167 -46 2 1 -2 29 -8 62 -7 32 -21 138 -33 234 l-21 175 -60 32 c-88 47 -97 43 -68 -32 11 -29 -19 -12 -37 21 -9 16 -27 34 -41 40 -36 17 -77 25 -83 16z m187 -189 c3 -5 7 -33 11 -63 5 -52 5 -54 -8 -25 -20 44 -29 95 -17 95 5 0 12 -3 14 -7z"/>
 <path d="M1900 605 c-11 -13 -9 -19 9 -36 13 -12 20 -28 17 -36 -10 -24 13 -43 50 -43 30 0 64 21 64 39 0 10 -40 62 -60 78 -21 17 -65 16 -80 -2z"/>
 <path d="M1956 394 c13 -49 36 -136 50 -194 15 -58 30 -109 34 -113 7 -8 147 7 156 16 2 2 -11 30 -30 61 -41 68 -113 231 -122 275 -5 24 -12 31 -29 31 -12 0 -36 3 -53 6 l-31 6 25 -88z"/>
 <path d="M780 280 c0 -7 -14 -9 -37 -5 l-38 6 58 -56 c106 -101 222 -152 367 -162 101 -7 180 10 285 62 98 47 102 50 86 69 -18 21 -28 20 -34 -4 -6 -22 -29 -25 -90 -11 -22 5 -51 5 -69 0 -23 -6 -52 -2 -117 17 -47 14 -117 29 -155 35 -38 5 -107 20 -154 34 -98 28 -102 29 -102 15z"/>
 </g>
<g id="layer104" fill="#fbe245" stroke="none">
 <path d="M130 850 c0 -26 81 -436 92 -462 8 -23 23 -32 75 -48 67 -21 167 -26 192 -11 7 5 15 29 18 54 6 52 -20 117 -62 157 l-25 23 26 14 c15 7 27 13 29 13 5 0 43 -102 66 -173 15 -49 27 -70 43 -76 36 -13 146 -34 151 -29 3 3 -5 103 -18 224 l-23 218 -59 18 c-77 23 -75 23 -75 -14 l-1 -33 -14 32 c-11 27 -21 33 -70 43 -31 6 -59 9 -62 6 -3 -3 2 -24 11 -48 l17 -43 -39 41 c-70 74 -113 96 -197 102 -56 3 -75 1 -75 -8z m211 -162 l44 -33 -30 -3 c-22 -3 -35 3 -52 23 -46 53 -25 59 38 13z m266 -123 l3 -50 -20 50 c-24 60 -24 57 -2 53 13 -2 18 -15 19 -53z m-227 -82 c0 -7 -4 -13 -9 -13 -17 0 -41 31 -41 52 0 21 0 21 25 -2 14 -13 25 -29 25 -37z"/>
 <path d="M734 704 c8 -91 27 -134 93 -211 l46 -54 -43 7 -43 7 6 -62 c3 -35 8 -65 11 -68 7 -8 176 -42 209 -43 31 0 32 6 15 79 -11 50 -18 60 -161 235 -31 39 -31 39 -7 33 14 -4 44 -10 68 -13 47 -8 48 -6 31 62 -14 54 -33 68 -119 83 -36 7 -76 15 -89 18 l-24 6 7 -79z"/>
 <path d="M1060 745 c0 -3 7 -16 15 -28 8 -13 39 -113 69 -222 29 -110 57 -207 60 -216 8 -19 -23 -36 -34 -19 -4 7 -31 106 -60 221 -50 196 -55 211 -81 225 -38 19 -38 19 -39 -23 0 -21 -1 -58 -2 -83 0 -31 11 -70 36 -127 28 -64 36 -94 36 -142 0 -58 1 -61 33 -77 17 -10 48 -18 68 -20 20 -1 51 -9 67 -18 17 -9 39 -16 48 -16 18 0 18 13 -1 210 -4 49 -1 42 28 -55 17 -60 36 -116 40 -122 8 -13 86 -38 94 -30 2 3 -18 83 -45 179 -28 95 -55 192 -62 215 -8 31 -21 49 -48 68 -20 14 -39 25 -43 25 -3 0 -14 -21 -24 -47 l-18 -48 -16 49 c-14 42 -23 52 -68 78 -29 16 -53 26 -53 23z"/>
 <path d="M1410 663 c-43 -39 -50 -118 -22 -229 40 -157 141 -264 250 -264 32 0 41 5 50 25 17 36 16 40 -19 79 -20 24 -43 38 -67 42 -20 4 -47 16 -60 27 -24 22 -76 171 -68 194 9 21 60 15 84 -10 30 -31 28 -37 -8 -24 -16 6 -31 9 -34 6 -3 -2 1 -27 8 -54 12 -49 13 -50 77 -72 71 -24 99 -28 99 -13 0 18 -92 204 -118 238 -27 35 -98 82 -125 82 -9 0 -30 -12 -47 -27z"/>
 <path d="M1616 642 c-2 -4 19 -71 49 -147 29 -77 61 -169 71 -205 10 -36 24 -76 31 -90 7 -14 13 -30 13 -37 0 -7 9 -17 20 -23 23 -12 163 -51 167 -46 2 1 -2 29 -8 62 -7 32 -21 138 -33 234 l-21 175 -60 32 c-88 47 -97 43 -68 -32 11 -29 -19 -12 -37 21 -9 16 -27 34 -41 40 -36 17 -77 25 -83 16z m187 -189 c3 -5 7 -33 11 -63 5 -52 5 -54 -8 -25 -20 44 -29 95 -17 95 5 0 12 -3 14 -7z"/>
 <path d="M1900 605 c-11 -13 -9 -19 9 -36 13 -12 20 -28 17 -36 -10 -24 13 -43 50 -43 30 0 64 21 64 39 0 10 -40 62 -60 78 -21 17 -65 16 -80 -2z"/>
 <path d="M1956 394 c13 -49 36 -136 50 -194 15 -58 30 -109 34 -113 7 -8 147 7 156 16 2 2 -11 30 -30 61 -41 68 -113 231 -122 275 -5 24 -12 31 -29 31 -12 0 -36 3 -53 6 l-31 6 25 -88z"/>
 </g>

</svg>