<svg xmlns="http://www.w3.org/2000/svg" width="1032" height="592" version="1"><g fill="#00e4c6" stroke-width="2" style="line-height:1.25;-inkscape-font-specification:'something wild, Normal';font-variant-ligatures:normal;font-variant-caps:normal;font-variant-numeric:normal;text-align:start" aria-label="hi, i'm" font-family="something wild" font-size="452" font-weight="400" letter-spacing="0" word-spacing="0"><path d="M132 253l1 2-1 3h-1l-1-1v-1h-2v-3l-2-1q0-3-2-3l-1 2v3l2 2-1 3v1q-2 1-3-1l-1-3h-2l-2-1v1h-1v3l1 2q-2-1-2-3h-1v4l-2 1q-2 0-3-2l-1 1h-2l-1-1v-3l-1-2v-3l-1-5-1-2v-9l-1-2-1-9v-7h-1v-7l-1-3-1-5v-7l-1-1v-7l-1-1v-4h-1l1-3-1-3-2 1h-3l-6 3h-3l-1 1-1 1h11l-1 2-3 1h-1q-2 0-2 2l-2-1-1 1v2l-3 1h-2l-2 1h-4l-3 1-3 1h-2q-3 0-3 2v5l1 2 1 9v3l1 4v1l1 9 1 2v3l1 2v4l1 4v4l1 2 2 4v5l1 3v2h-1l-1 1v3l1 1-2 1-1-1-1 1-1-1v-3l-1-3v-3l-2-5-1 2v1l1 1 1 2v3l-1 1v5h-2v-2l-1-1 1-1-1-2v-2l-1-1v-1l-1-1-2-1-2-2-1 2 1 1v2h-1l1 2v2h-3l-1 1 1 2-1 1h-2l-1-1h-1l-3-1-2-2-1-5v-5l-1-2v-4l-1-3v-5l-1-2v-2l-1-3v-1l-1-4v-4l-1-1v-5l-1-5-1-4-1-4v-4l-1-5v-5l-1-3v-7l-2-14v-5l-1-2-1-8-1-8v-20l-1-3 1-2-1-2v-7l1 1 1 1v-9l-1-3-1-5v-2h1l1 1q0-1 0 0h1l1 2v5l1 1v2l1 2-1 3 1 1 1 3v5l1 3v10l1 5v2l1 1v12l1 1-1 1v1h1l-1 1v2l1 2 1 2v3l1 2v4l2 6-1 1 1 1h1l1 1 1-1v-1l1-1h1l2 1v-2l-1-2v-6l-1-1 1-1-1-2-1-4v-6l-2-2v-4l-1-5v-10l-1-2-1-6v-4l-1-3v-3l-1-6-1-3v-1l-1-1v-5l-2-6-1-1v-1l-1-1v-2h-2v-2l-1-1-1-2v-3l-1-1v-2l-1-4v-4h1l2 4q0 1 0 0v-1l1-1h3l2-4 1 2 1 2h1v-1h2v3h3l1 1 1 6 1 4v10h1v2l1 2 1 3v4l1 2v2h1v4h1v5l1 4 1 5v6l1 4 1 1v1l1 7v4l1 3 1 7v4l1 5v3l2 5h3l2-1h3l3-1h1-1 3l2-1 1-1h3l2-1h2l2-1 2-1h3v-1h4l1-2h3v-8l-1-2 1-2v-11l-1-10v-10h1l-1-3v-8q0-1 0 0v-9l-1-5v-9l-1-1 1-1-1-3v-3l1-1 1-1-1-1-1-3 1-2-1-2 1-1v-1l2 1 1 3v1q1 0 0 0v-2l1-1v-2l1-2 1 2 1 3h1l1-2h2l1-1v-2l1-1 3 1v6h4l1 2h1l1 5-1 2-1 1v1l1 1v12l1 8v4l2 2v1l1 1 1 3v7l1 2v3l1 2v2l1 2v4l1 4v16l1 1v11l1 11 1 13 1 6 1 6v6h1v6l1 6v6l1 3v5l1 4v4l1 2zM15 78v-1l-1-2v-2h1l1 1v1l1 1v5l1 1q1 1-1 2l-1-1v-2l-1-2zm84 21l1 2v-4l-1-1v-5h-1v-3l-1-1h-1v-3h1v-1l-1-1-1-2v-1l-1 1v4l1 2v6l1 2v2h1l-1-2 1-2 1 3v2zM19 86q2 1 1 2-2 1-1-2zm2 9q-2 0-2-2v-3l1 2zm-1 5h1l-1-1zm16 4v4l1 1v1l-1 1v2l1 1 1-1 1-1v-1l-1-1v-3l-1-2zm64 1q0-1 0 0zm-2 6v1h1l-1-1q0-1 0 0zm-59 12h1v-1l1-1-1-3v-1q1 0 0 0v-2l-1 2-1 3 1 1zm63-7l-1 1zm2 15l-1-5-1 2 1 2v2l1 1zm-64 11l1 1q0-2-1-1zm66 6v-2l-1-3v-4l-1-1v12l1 2-1 1v4l1 3v4l1 1v-15zm-65 0v2h1l-1-1zm3 25l1-1-1-3-1 2zm62 4v1l1-2v-1l-1-1v2l-1 1zm-31 7h-2l-2 1h-1l-3 3h-2v1h-4l-2 1v1l1 2h2l2-1 1-1 1-1 2-1h1v-1l1-1 1 1h1v-2zm-34 40l1 1h2l-1-2v-5l-1-1v-1l-1-4v-7h-1v-5l-1-2v-4l-1-1v-2h-3v2h1l-1 2v3l1 2v4h1v1l1 1v5l1 2v3q1 0 0 0h1v4l1 2zm33-34h2l1-1zm-33 2l-1 1 1 1zm67 0v-1zm10 1l-1 2 1 1v-2zm-69 16v-4l-1-3v-1q1 0 0 0l-1-1v7q1 0 0 0l1 1v1zm74 17v-1l-1-2-1-4v-5l-1-2v-4l-1-4v-1l-1-1 1-2q1-2-1-3h-1v5l1 4v2l1 1v8h1v1l1 6v5l1 3 1 2v-6zm-79-15v-3h-1v-1 2zm2 11v-2l-1-1q0-1 0 0l1 1zm-1 12l-1-6q0-2-2-2v2l1 1v4zm8 3l1-1 1-1-1-1v-5h-1l-1-2v2l1 3v3zm-8 0l1-1h-1zm11 7v1l1 1-1-3-1-2zM318 85h3l1 1-4 2-2 1-2 1v1l-2 2-5 1-1 1h-1l-7 2-6 1v2l1 5v9l1 1v8l1 2v5l1 4 1 1v5l1 3 1 1h1l-1 1h1v1l1 1 1 5 1 1-1 2v2l1 4 1 2 1 2v6l1 3v9l1 6v6l1 2v8l1 1v8l1 3v5l1 1v6l1 1v8l1 2v3l1 5v6l1 2v8l1 1 1 4v3l-1 4-1 2-1 2v1c0-1 0-1 0 0l-1-1-1-1-3 1h-5l-3 1h-1l-1 1-1 1h-1l-1-1-2 1h-2l-2-1-1-1-1 1-2 1h-1v-2h-2l-2-1h-3l-1-1h-3l-2-1-1-1-1-1v-4l4-1-1-1v-2l2-1h1l1-1 1 1 3-1h-1v-2h2v2h3l-1-3-2-2h2l1-1-1-7v-9l-1-3v-5l-1-3-1-15v-2l-1-10v-1l-1-5v-4l-1-4 1-2-1-3-1-5 1-2v-10l1-1h1v-5l-1-1v-12l1-2 1 1 1 1 1 3v3l1 1-1 1 1 3v1l1 2v7l1 5v4l1 2v13l1 2v8l1 2-1 2 1 2 1 4 1 1v3l-1 2c0-1 0-1 0 0h2v2l-2 1 1 2h2v1l1 2v2l1 3v3l1-2v-4l-1-3v-11l1-1 1-1v-3l-1 2-1 2-1-1-1-1v-7l1-1v-1l1 3 2 3v-1l1-2h-1l1-1-1-1-1-2 1-1-1-2v-5l-1-2h-1l-1 1v-1l-1-4v-4l3 1v-2l-1-6v-1l1-1v-2l-1-1v-2l-1-1v-6l-1-5-1 1v-2h2l-1-4-1-5-1-1 1-4-1-3-1 1v2h-1v-4l-1-3-1-3v-5l-1-2-1-2v-3l-1-3v-7l-1-4v-1l-1-3v-5h-3l-2 1-1 1h-1v1h-2l-2-1h-1v-1l-1-2v-2h-2v-1l1-1v-4l-1-3-2 1-2 2h-1l-3-1v-1l1-1h-1l1-1v-2l3-1h1v-1l3-1h2l1-1 1-2h2l1 1 1-2 1-1h5l2-1h1v-1h2l1 1h3l3-1 4-1 1 1 2-1 3 2v2l2 1 2 1-3 1-4 1 1 1 1 1 1-1 4-1 1 1 1-1h4l1 1v-1l2-1v2l2 1zm-57 4l2-2h-1l-1 1zm31 44l1-2v-4l-1-3v-4l-1-2-1-2 1-3-1-4-1-1v7l1 2-1 3 1 2v1l1 5-1 1 1 1v1zm-14-4l-1 1v1l-1-2v-1h2zm14 5v3l1 1-1-4c0-1 0-1 0 0zm-13 8l-2-2v-4h1zm16 8v-2l-1-1v1zm-6 1c0-2 0-2 1-1zm2 9l-1-2-11 5c1 0 13-7 13-5l-1 1zm6 7l-1 2v1l1 1 1 1v1l-1 2-1 1 1 2 1 2-1 4v4l-1 1 1 3h1v1h1l-1 3-1 1 1 1v3l1 2v1l2 2-1 2v2l1 2v5l1 3v6l1 3 1 6 1 4-1 4 1 1v2l1-3-1-3v-5l-1-6v-5l-1-2v-6l-1-4v-1l1-1v-1h2v-3l-1-1v-1l-2-1v-1l-1-5v-8l1-3-1-1h-1l-2-2 1-2v-2l1-2-1-2v-1l-1-2v-1l-1-2zm-7 4h1l-1 1zm-3 7c1 0 2 0 2 2l-2 1zm1 6v-1zm7 10v-1h-1zm-2 5l1 1v1l1 1-1 1c-2 0-2-1-1-1zm-3 5l-1-2 1-1zm1 5l1 1-1 2v4l-1-1v-4zm16 13l-1-2-1 2zm-1 32h1zm1 7v2l1 1v-2l-1-1c0-1 0-1 0 0zm-32 19h2l1 2c-3 0-4 0-3-2zm104 44l1-1v-2l1-2v-3l1-1v-5l1-3v-2l1-10v-2l1-4v-4l1-9v-6l-1-1-1-1h-1v-5l-1-2-1-2h-1l-1 1v-1l-1-1-1 1-1 1-1-1v-2l-1-1-1 1v2l-1 1-1 1h-3v-1h-1v-1h-1l-2-1c-2 0-2 2-2 6l-2 2v5l-1 2v7l-1 3v4l-1 4 1 3-1 3v2l-1 2v6l-1 2 1 3-1 3 1 4h1l1-1 1 1 1 1v2l1 2v2l1 1c-1-2-1-4 1-4l1 1 2 1v-1h1l1 1 1 1h2l1 4v2c0 1 0 2 2 2v-2l2-2v-3h3zM532 77h3l-3 3-2 1-2 1h-1v1l-1 2-5 1h-2l-1 1-7 1-5 1v8l1 1v8l1 9 1 2v3l-1 2 2 3v1l1 1v4l1 4v1h2v2l2 5v4l-1 1 1 1v3l1 2 1 2v3l1 3v3l1 5v5l1 5v8l1 1-1 2 1 6v1l1 5-1 3 1 3v2l1 3v1l1 6v3l1 6v5l1 5 1 2v6l1 7v2l1 4 1 3-1 4-1 1-1 1v2h-2v-1l-3 1h-9l-2 1v1l-1 1-1-1h-7l-1-1-1 1h-2l-1-1h-2l-1-1h-1c0-1 0-1 0 0v-1h-2l-1-1h-1l-2 1-2-2-1-1h-1v-5h3v-2l-1-1 2-1 2-1h1v1l3-1v-1l-1-1h3v2l3-1-2-2-1-2h1l1-1v-8l-1-8v-3l-1-5v-3l-2-16v-11l-1-1v-5l-1-5-1-4 1-2-1-3v-4l1-3-1-1h1v-3l-1-1 1-2-1-1 1-1v-1l2-1-1-4v-4l-1-1 1-2-1-2 1-1v-1l-1-1 1-1 1-3 1 1 1 2v2l1 2v4l1 2v6l1 3v6l1 2v5l1 4v5l-1 1 1 2v6l1 3v7l1 4 1 1 1 1c0-1 0-1 0 0l-1 2v2l1 1v-1h1l-1 1v1l-1 1 1 3v-1h1l1 1v4l2 4v2l1-2v-2l-1-2v-6l-1-1 1-1-1-2v-2h1l-1-2h2v-4 2l-1 1h-1l-1-2v-2l-1-1 1-4 1-1 1 3 1 2 1-1v-4l-1-1v-2l-1-2v-3l1-1v-1l-1-1h-2l-1-1v-7l2 1v-9l1-1-1-1 1-1-1-1-1-1v-3l-1-2v-8h-2l1-1 1-1-1-4-1-4v-5l-1-3-1 1-1-1v-5l-1-3v-1h-1v-5l-1-2-1-3v-3l-1-5v-7l-1-4v-3l-1-2-2 1-2 1-2 1h-1l-1 1-2-1h-1v-1l-1-1v-1l-1-2h-1v-2l1-1-1-1 1-1v-2l-1-2-2 1h-1l-1 1-2 1-2-1v-4h1v-1l2-1 1-1h1l3-1 1-1 1-1 2-2 1 1h2l1-1 1-2 1 1h2l1-1h2l1-1 1-1 1 1 2 1 3-1h3l4-1h1l2-1 2 2v2l2 1 2 1-3 2h-3l1 1v1h1l5-1h3l2-1 2 2v-1l1-1 1 2h2zm-57 3l1-2h-1v1zm30 44l2-1v-4l-1-4-1-1 1-1v-1h-1l-1-3v-8l-1-1-1 2 1 2v7l1 3v8zm-13-3h-1v3h-1v-5h1l1 1zm14 5l-1 2 2 1-1-4zm-14 8l-1-3v-4l1 1zm17 7l-1-1v-1l-1 1zm-6 1v-1zm2 9l-2-1v-2c1-1 2-1 2 1zm6 8l-1 2c0-1 0-1 0 0v1l1 1v1l-1 2v1l1 3v9l-1 1v1l1 2v1h1v3l-1 1v1l1 2v3l1 2 1 1v4l1 3v7l1 2v4l1 3v6l1 5v5l1 2 1-3-1-4-1-4v-12l-1-1-1-1 1-2v-3l-1-5c-1 0-1 0 0 0v-2h1l1-1 1-1v-1h-1v-2h-1 1-1v-1l-1-1v-1l-1-4v-4c-1 0-1 0 0 0l-1-1 1-1v-1l-1-2 1-2v-1l-2-1-1-1 1-3v-6l-1-1v-2l-1-2zm-7 4h1l-1 1zm-3 6l1 3-1 1zm1 6l-1-1zm6 10v-1zm-1 6l1 1v3c-2 0-2-1-2-2zm-4 4l-1-1 2-2v2zm1 6l1 1v6l-1-2v-4zm16 13l-1-2v2zm0 31v1zm1 7v3l1 1-1-1v-2zm-33 19l3 1v2c-2 0-3-1-3-3zm84-193h1v-4l1-2v-3l1-1v-6l1-2v-1l1-10v-6h1v-3l1-9v-5l-1-1v-2h-2v-6l-1-1-1-2h-2l-1-1-1-1v2h-2v-3h-2v2l-1 1-1 1h-3l-1-1-1-1h-2c-2 0-2 2-2 6l-2 1v6l-1 2v7l-1 2v4l-1 5v5l-1 2v8l-1 3v10h2l1-1h1v1l1 2 1 3-1 1 1 1 2-4 1 1 2 1h1l1 1h3l1 4v3l1 1 1-2 1-2 1-3 1 1h1zm155 105l1-2v-5l-1-1h1l-1-7v-1l-2-10v-2h-1 1-1v-3l-1-4-1-6v-3l-1-1v-4l-1-4v-7h-1l1-2h-1v-3l-1-1-1-1-1-4v-6l-1-1v-7l-1-1v-2l-1-1-1-1h-1l-1-5v-9l-2-9-1-1-1-1-2-2-1 1v1l-1 1-1-1h-1v-3h-1v-1l-3 1-1 1-1 1v-1h-2c0-2-1-3-2-3l-1 1v2l-2-1-2-1c-1-2-2-2-2-1l-1 1v4h-1v1l-1 1 1 2 1 2v7l1 2 1 3v4l1 1v2l1 1v1h-1v1l1 1h1v10l2 3-1 1v3h-1l-1 1h1l2 1v1l-1 1 1 4-2 2 1 2-1 2v3l-1 2v3l-1 3 1 3v2l-2 2v1h-1v1l-1-1c-2 0-2 1-1 3l1 1v7l-1 1-1-1v-1l-2 2 1 1h1l1 2v2l-1 1v4l-1 3v-7l1-1-1-2h-1l-1-1 1-2v-7l1-5 1-2v-5l1-1v-2l1-2v-6l1-2-1-2 1-3-1-5v-4l1-3v-6l-2 1v2l-1 1-1 1 1 1v4l-1 1v3l-1 1v2c-2 2-2 4-2 8v4l-1 3-1 2v2h-1v1l-1 1v6l-1 1v3l-1 1h1-1l1 1-1 2v5l-1 5v1l-1 3v1l1 3-1 3v7l-2 2v2l1 2-2 2v-2l-2-2-1-3-1-2-1-3-2-4 1-1h2v1l1 2 1 1v2h3l-1-1v-2h-1l-1-3v-1h-1v-2h-1v-2l-1-1-1-2-1-2h-1l-1-1v-2l-1-1h-1l-1-1v-4l-1-2v3l1 3-2 1-1-2-1-2h-1v-3l1-2-1-1v-2h-1l-1-1v1l-1 2-1-2v-3l-1-1h-1l-1-1v-1l2 1h1v-7h-1v-1l-1-3v-1l-3-2v-1h-1v-2l-1-2v-1l-1-1-1-1v-3l1-1-1-3v-2h-1c0-1 0-1 0 0v-1l-1 2v1c-2 0-2-1-1-3l-1-1-1-2-1-1-1-1-1-4-1-3v-1l-1-1v-1l-1-1v-1l-2-3-2-6h-1v-2h-1v-2l-1-1v-1l-1-1v-1l-1-1-1-2v-3l-1-3v-5h-1 1l-3-1-2-2-1-1-1-2v-1l-3-1-1 1v1l-1-1-2-1-1 2v2l-1-1-2-1v2l1 2 1 2-1 1v5l1 1v1l-1-1-1-1-1 3h-1v1h-1l1 3v8l1 4v4l1 1v2h1v1l1 2-1 2-1-2-1-3v-2h-1v3l1 2v14l1 3-1 2 1 13v15l1 5v11h1v10h1v14l1 1v8l1 3v4l1 5v9l1 1v4l1 1-1 3c0-1 0-1 0 0h-1c-1-1-1-1 0 0-2 0-2 0 0 2v1l-1 2 2 4v7l1 1h2l1 5-1 1-1 1 1 4 1-1h1l1 6h-2c-1 2-1 4 1 5h1l2-1v5h2l2-1 2 2v1l1 2v-2l1-1v-2h1l-1-2 1-2v2h1l2-1-1-2 1-1 1 1 1 1 1 1h1v2h-2l1 3c-1 1-1 2 1 3l4-1v-1l1-2v-1l-1-2-1-1v-6l1-1h2v-3l-1-2-1-1-1-4v-4h-1v-1l-1-2v-1l1-3-1-1-1-3v-2l1-2-1-1v-2l1 2 1 1v-2h1l-1-5h-1l-1 1-1-1v-1l-1-3-1-2v-2l1-3c-2-3-2-5-1-5h1l2 1 2 2v1l1 1v-5l-1-2 1-6-1-3v-1l-1-2 1-1-1-4v-7l-1-2v-2l-1-7v-11l1 1 1 3h1v2l1 1 1 1v1l2 6 1 2h1v2l1 2 1 2 2 2 1 4 1 1v6l1 1h1l1 4 2 1 1 2v4l1 1 1 1 1 4v2l1 2v3l1 1v1l1 1v1h1v1l1 1 1 2v1l1 1v2h1l2 2 1 2 1 1h3v1l2 1h4v-1l1-1h2l1 1-1 1v1l1 1 1-1 2 3 1 1 1-1 1-1h1v-1h1v-1l1-1v-1l1-1v-5l1 1 1-1 1-2 2-7h-1l-1-2-1-2v-3l1-2v-1l1-2-1-3 1-4v-5h-1v-2l1-2 1-1v3l1 2v-3l1-3v-11l3-1v-1l1-1 1 3v3l1 2-1 3 1 3v1l1 2v1l-1 2 1 1v5h1v11l1 3 1 1 1-1 1 1-1 2v1h-1v2l1 5v5l1 4 1 2v3c2 1 2 4 2 10l-2 1 1 3 1 3 1-1-1-1 2-1 1 1v11h1l2 2v3l1 1h2c0 1 0 2 2 2l1-2 1-3 3-1-1-3 1-2-1-3v-3l1-1v-1l1 5v2l2 1 1 1-1 1v2l1 1h1l1 2v2l2 2v-2l-1-2 1-2-1-3-1-1v-5l2-1v-1l-1-2-1-2v-1l-1-1v-4l1-1 1-1v-2l-1-2-2-3v-1h1v-2h1l-1-2v-3l-1-1v-1h-1v-7l-1-1v-6l1-2v-3c-2 0-2-1-2-2v-1l1-2-1-1-1-2v-15l1-2h1l1-1-1-2-1-1v-4l1 1 1-1 1 3v2zM594 66v-1h1l-1-1v-1l-1-3-2 1v2l1 4zm14 86l1 2-2 1-1-6v-8l-1-3v-1l-1-2 2-2-1-2 1-2-1-2h-2v-7l-1-1-1-6 1-4-1-5-1-4v-5l2 2v4h1v1h1v6l1 3v1l1 2v12l1 8v9l1 3zm-4-33c-1-1-1 0-1 2l2-1zm34 4v-1l-1-2zm-2 7c0-1 1-1 1 1l1 2c-2-1-2-2-2-3zm49 5v-3h-1v2zm-38 6l-2-2v-1h-1l1 1v1zm36 0l1-1v-2l-1 1zm38 17v3l-1-1v-3l-1-1v-6l-1-2 1-1-1-2v-1l-1-2v-2c0-1 1-1 1 1v2l1 2v3l1 4v2l2 2zm-38-16l-2 1 1 2 1-1zm-72 32v1l-1 1-1-1-1-2 1-1 1-2-1-1-1-3-1-3 1-1v-3l-1-2 1 1 1 1v2l1 2v1l1 3-1 2 1 4zm44-11v2l-1 2-1-1-2-1 1-1zm-41 46h-2l-1-2v-1l1-1-1-2v-9l-1-3 1-1v-3l-1-2v-4l-1-3c0-2 0-2 2-2v3l1 1v1l1 2v1l1 1v1l-1 2 1 2v3l-1 1v4l1 1h1l-1 3v3zm65-22l-1-1v-5l-1-3 2-3 1 3-1 3v1h1v1zm50 1v-2l-1-2v2zm-15 10v1h-1v-6l1 1v3zm2 5v1l-1-1zm-101 8v1h-1c-1-1-1-1 1-1zm75-1l1-4c-2 0-2 0-1 2zm26-5l-1 1v-1zm-86 13v-5h-1v-1l-2-1c-2 0-2 2 0 5 0 1 1 2 3 2zm-17-6l1 2v2h-1zm102-4l1 1-1 2zm-25 4h-1v2h-1v1h1l1-1zm-88 16c0-1 0-1 0 0h1l-1 1zm13-1v1zm103-6v5l-1-2v-3zm-15 2l1 2v2l-1-2zm26 1l2-1v-1l-2 1zm-98 8v-2l-1 2zm88 2l1 1v2c-2-1-2-2-1-3zm2 14l-2-2 1-3v1l1 3zm-8 10v-2l-1-1 1-2v3zm-80 3h-1l1 1zm100 1v-2l-1 2z"/><path d="M241 276l-1-3h-2l-1-2 1-1-1-2v-2-1l-1-1 1-1v-4l1-3v-3-6l-1-1v-3h-1l-1-2h1v-1-1-1l1-2-1-4v-1h-1v-1-2l-1-1v-1l1 1v-1-7-2-4-2-5h-1v-2l1-1-1-3v-3-2-4-4l-1-2v-1l1-3-1-3h1l-1-1v-4-3-4l-1-3v-3h-1v1l-1-3v-3h2v-1-6q0-4-2-6v-2-1h-1v-1l-1-3v-2h-1v-5-1-1l-1-2v-2h-2v9l-1 1 1 1h1v2l1 1 1 1-1 3-1-1h-1v6h1v1l1 1h1v4h-1v4l1 3v1l1-1v4h-1v6l-1 1v1l1 1 1 2-1 2v2l1 2v2l1 1v7l-1 1 1 2q-2 2 0 5v1l1 1v5l-1 1h1v2l1 2v2l1 1h-1l1 3-1 2 1 6v5l-1 1 1 2v5l1 1v4l-1 1v8h1v1h1v6l1 1v5l1 2-1 1q2 1 1 5h-2v-1-3-1-1-1l-1 1-1 1v-3h1l-1-1v-2-1-3l-1-1h-1v-4-1-1-1-3l-1-1 1-3v-1l-1-1v-1-2-1-1h-1v-1-3-2-1-5-5l-1-3v-2-3-1-1-4l-1-2v-2-1-3l1-4-1-1v-1-1l1-1-1-1v-2l-1-3v-1l1-1-1-2v-7l-1-2v-2l1-1v-1l-1-2v-1l-1-2 1-1v-1l-1-4v-4l-1-3 1-5-1-3-1-2v-2l-1-1v-1h-1v-1-8-1-2l2 2v1l1 1v-2-1l1 1 1-1v-2l-2-6v-2-1l-1-1 1-2h-1v-1l-2-1h-1q0 1 0 0l-2-2v-4-1h-1v-1l-1-2v-2h-1 1-1v-1l-1-1h-1v-1-2l-1-1h-2v-1q-3 0-5-2v-2l-1-1-1 1h-1-1l-2-1h-1l-1-1-1 1q1 0 0 0-2 0-2-2h-4l-1 1h-1l-2 1h-1v1h-2l-1 1-2 1-1 1v1h-2l-1 1-1 2-1 1-1 1-1 1v1h-1v1l-2 3v2h-1v1h-1v2l-1 1v1l-1 2h-1v3h-1v2l-1 1q0-1 0 0v1l-1 1v1l-1 1v1l-1 1v2h-1v2l-1 1h1-1l-1 4v1l-1 2v2l-1 1v2h-1v3l-1 1v3l-1 1v3l-1 3-1 2-1 3v15l-1 1 1 9-1 5 1 2v15h1v10h1v6l-1 1 1 4v5l1 6v3l1 2v5 10l-1 2 1 2v1l1 1 2 1 1 1 1 1 2-1v-2h2l1-1 1 1h2v1h1v1h1l1-3h1v-9h-1v-8l-1-1 1-1-1-2v-3-1l2-2h3v-2l4-1 8 1 8-1h2l-1-1h-2-1v-1h3v-1h3l2-1 3 1q-1 0 0 0v-1l1-1v2h3l2-1v1h2v3h1v2l-1 1v1l1 3v3l1 1 1 2-1 2v4l1 3v5l1 1v-2l1-1v4h-1-1l1 4v7l1 6-1 1h1v2h2l2 3 1 2 1 1 1-1h1l2 2v-2l1-1v-2-1l1-2v3h2v-1-1l1-1v1h2v-1l1 2 1 1v3h2v-1-3l1-1v-1l-1-1v-2l1-1 1 1v1l1 1h2v2h-1v2h3zM210 82h-2v1h2v-1zm-33 8l3-1h-1l-1 1h-1zm1 7l2-1 2-1v2l-1 1v1h-1v1q1 0 0 0v1l-1 2v1h-1v1h-1v3l-1 1h-1v3h-1v1l-1 1v3l-1 1v1l-1 1h-1v2l-1 2v1l-1 2v3h-1l-1 2 1 1-1 1h-1l-1 4h-1v2l-1 1v3q1 0 0 0v3l-1 1-1 4v3l-1 2v8l-1 1v2q-1 0 0 0v3l1 2v9h-1v1l1 2v4l-1 1h-1-1l1 1h1l1 5v1l-1 1v1l-1 1v2l1-1v-1h1q0-1 0 0h1v2l-1 1 1 2v5l-1-1v-1-2l-1-1-1 3-1-2v-1l-1-2 1-1h-1v-1-3h-1v-3-4-2-2-7l-1-3-1 3-1-1v-1-5-3-1-3l1-2h1v1l1-2v-2l-1-1v-3-3-2l1-2v-1l1-3 1-3v-1-2l1-1q0-1 0 0l1-1v-2l1-2v-1l1-1 1-3 1-2 1-1 1-2v-3l1-1v-1-2h1l1-1 1-1v-3l1-1v-1l1-1v-1h1v-1-2h1v-2l3-3v2h1l1-1v-1h-1v-1q0-2 2-2zm30 101v6l-1-1-1 3v6l-1 2h-5-7l-1 1h-12l-1-1-1 1h-5l-3-1v-1-1l-1-1v-2-3h-1l-1 2 1 1v2h-1-1l-1-1-1-4-2-1v-13 1l2 1v-1-2l-1-3v-1-1-1-1h-1v-1l2-1h4v-1-1l-1-1v-1l-1-1-1-1 1-1h1v-1l1-2v-3l1-6v-6l1-1v-2l1-2v-4l1-1v-4h1v-1-1l1-1v-1l1-2v-1l1-2 1-1v-1-2l1-2 1-1h1v-2-1h1l3-8v-2h1l1-3h1v-2l1-1v-1h1v-2h1v-1l1-1v-1l1-1h1v-1h2l2 4h1v1l1 1v2l1 1 1 2v3l1 1v2l1 2v4h1v5h-1v7l1 1-1 4 1 3v2l1 3 1 1 1 1-1 1h-1v8l1 2v13l-1-1v-1l-1 1v13l1 4v9l2-1h1zm12-87v3h-1v-2l1-1zm1 6l1 1v1l-1-2zm-6 4v2l-1 1-1-1v-1l-1-2 1-2v2l1 1h1zm8 9l1-1h-1l-1 1h1zm-5 3q2 0 1 4l-1-2v-2zm0 22l-1 1-1-1 1-1-1-1v-2-2-6l-1-2v-1l-1-1 1-1 1-1v-2l1 1v2l1 1-1 3 1 1v12zm7-19h-1l1 2v-1-1zm-58 8l1 1-1-1zm54 2v1l-1 1-1-1v-2h1l1 1zm9 0v0zm-9 10v1l-1-1zm1 23h-1v-1l-3-2v-3h-1q1 0 0 0v-2l-1-2v-4-1-1l2-2v-1-1h1v1h1v1l-1 1v4h2v2l1 1-1 2 1 1v6zm-1-6v-2-1q-1-2-2-1v4h1zm-15 4v1q1 1 0 0zm13 2l1 2-1 1-1-3h1zm4 11v2h-1l-1-1 1-1v-9 3l1 1v4zm-58-1l1-3-1-2v5zm-12 7v2l-1-1v-2-3l-1-2 1-2-1-1 1-2v2l1 1v8zm67-4v1l-1-1h-1 2zm0 3v0zm-67 4zm0 3v1q1 0 0 0v-1q0-1 0 0zm55 4v5h-1l1-1v-4zm-40 6v2l-1-1v-1h1zm-4 1h1v1h-1v-1zm31 15l-1-1-1 1h2zm-29 1l1-1v1h-1zm-3 10v1l-1 1v-2l-1-3v-2l1-1v3h1v2q1 0 0 0v1zm48 6v3l-1-2zm-43 5l1-1-1-1v1h-1l1 1zm68-1l1 2v1l-1-1v-2z" aria-label="a" font-size="380"/></g><g fill="#00e4c6" style="line-height:1.25;-inkscape-font-specification:'something wild, Normal';font-variant-ligatures:normal;font-variant-caps:normal;font-variant-numeric:normal;text-align:start" aria-label="gayatri" font-family="something wild" font-size="441" font-weight="400" letter-spacing="0" word-spacing="0"><path d="M466 550l-1 1h1v1h1l1 1h-3l-2-8-1-8v-4l-1-3v-4l-1-6v-3l-2-7h-2l-1 1v2l1 6 1 1v3l-1 2v3l1 2 2 1-1 4-1-1 1 1v3l-1 1h-1l-1-1v3l1 2v3l-1 1h-1v-2l-1-1-1 3v3h-2v6l-2-1-2 2h-1l-1-2v-1l-1-1-1-1-1-3-1 1v1l-2 1-2 5h-1v-1l-1 1-1 1h-1l-1-1v-1l-3 2 1 1-3 2-2 1h-2v-1l-3 2h-1v-1l-4-1h-5l-1-1h-4l-1 1-1-1h-1l-2-1h-3v-1h-1l-1-1h-2v-1h-1l-1-1h-1v-1l-1-1q0-1 0 0l-3-2-1-1-2-2q0-1 0 0v-1l-2-2-2-4h-1v-1l-1-2-1-1h-1v-1h-1v-2h-1l-1-2-1-1-1-2v-1l-1-1-1-1-1-2v-1l-1-2-1 1v-3l-2-3-1-2v-1l-2-3-2-4v-1l-1-2v-1l-1-2v-1l-1-2-1-1v-2l-1-2v-1l-1-2v-1l-1-3-1-5-1-5v-5l-1-11v-5l1-2h-1l1-1v-9l1-2v-8l1-1v-8q0-1 0 0l1-1v-1l1-6 1-1v-4l1-1v-1l2 1v5l-1 1v3l-1 1v7l1-2v-4l2-1v4l-1 2v4h-1l1 3-1 2v3l1 2-1 1h-1v19l1 1-1 2v3l1 3v4l1 3v2l1 4 1 2 1 4 1 4 1 2v1l1 3 1 2v2l2 2v1l1 1 1 1v2h1v2l1 1 1 2 1 1v3q1 0 0 0l1 1h1l1 1 2 2 1 2h1l1 5h2v-3l-1-2-1 1v-2l-1-1v-2l-1-2v-2l-1-1-1-1-1-4-2-3v-3l-1-1-1-1-1-1 1-2h-1v-1l-1-1v-2h-1l-1-1-1-3v-6h-1v-4h1l-1-4-1-3h1l-1-2v-14l-1-2v-5h1v-14l1-1-1-2v-1l1-5 1-1 1-1v-2l1-2 2 1 1-5v-4l1-1v-2l1-2v-1l1-1v-1l1-2 1-3 1-4v-3q1-1 0 0l1-1 1-2v-4l1-2v-2l1-1h-3v1h-2l-2 3-2 1v-8l1-1v-1l1-2 1-1h1l-1-1h1v-1q2-2 3 0v1h1l2-1h-2v-1h1q2-2 5-2l2 1 4-1h2l2 1h1l3 1h1l1-1 4 1h3l1 1h1l3 2v1l-1 1 1 1 1 1 3 3 3 2 1 2 3 4 1 2v2l-1 1v1l-1 2v2l-2 1-3 3-1-1h-2l-2-3h-1l-1-1-2 1h-1v-3l-1-3-1-1h-1l-1-1-1-1h-1l-2-1h-7l-4 3v1h-1l-1 3-1 1v1h-1v1l-1 1v2h-1 1l-1 1v2l-1 1v1l-1 1v1l-1 1v3h-1 1-1v1q1 0 0 0v3h-1v2h-1v6h-1v5l-1 2v4l-1 3v13l-1 2 1 2v6l1 5v6l1 3v1l1 5 1 4-1 1 1 2 1 2v1h1v1l2 4v2l1 2 1 2 2 4 2 4 1 2 1 2h1v2h1l1 1v1l2 3v1h1v1l1 1v1h1v1h1v1l1 1v2h1l1 2h1v2h1l1 1h4v1h3l2-1h1l2-1 2-1v1h1v1h1l1-1h1l1-1q0-4 2-4l2-2 2-1 1-1v-1h2l1-2 2-1v-1l1 1v-7l-2-11v-1l-2 1-2 1h-1l-1-1v-1h-1l-2 1h-2l-1-1 1-2h-3v-2l-1-1-2 1-2 1v1h-1l-2-1v-2h2l1-2-1 1-2-1h-2l-1-3v-2l1-1q0-1 0 0h1l1-1h1v-1h1l1-1 2-1 1-1h2l1-2h1v-1l5-3 4-2 2-3 1 1 1 1 1 1h2v-1l1-1h1v3q2 0 2-2l-1-1 1-1 1 1v1l1 2v2l1-1v-2h3v1h1v2h3v2l1 1v3l1 3 1 1v3h1v1l1 5h2l1 2-1 1 1 2 1 5v5h1v7l2 2-1 2v1l1 1v9l1 1 1 4 1 4v3l-1 2zm-91-160v2l-1 1-1-1 1-2zm-7 2l1 2h-1zm-2 8v-3h1v2zm6 0v-2zm-15 13v-2h1l-1-2h1l1-2v-4h1v-1l1-1 1 1-1 2v2h-1v4l-1 1v2h-1l1 2h-1v1l-1 2h-1v-4zm60-15v-1h-1zm-65 44l-1 1h1v-6l1-3v-2l1-1v-2l-1-1v5l-1 1v2zm0 9zm16 12v-4l-1 2h1l-1 1zm89 12v1l-1 1v-1zm-25 4v1l-1 1q-1 0 0 0l-2 1v1l-1 1 3-3 2-1zm-3 7q3 0 3-2-2 0-3 2zm21-2h1v-2h-1zm7 20l-1-1v-4l-1-2-1-3-1-2-1-1v-1 7l1 2v3l1 3 1 2v1h3zm-8 2l-1-2-1-1v5h1l1-1zm1 19zm3 17v-2h-1v-2h-1v2q0 2 2 2zm-20 8l2-2zm145 7l-1-4h-2q0 1 0 0l-1-2v-1l-1-3v-2l-1-1-1-1 1-2v-14l-1-3v-2l-1-2v-2l-1-1h-1l-1-2 1-1v-5l-1-5-1-1h-1v-4l-1-1v-1l1-1-1-8-1-3v-4l-1-4v-3l-1-1v-5l-1-4v-3l-1-3v-5l-2-4v-7l-1-4v-2l-1-4v-1l-1-3v-5l-1-3-1-4h-1v1l-1-3v-4l1-1-1-7-2-8-1-2v-1h-1l-1-1-1-5v-1h-1l-1-7v-1l-1-1v-3l-1-1-2-1v3l1 3v3l1 2-1 1-1 1 1 1h1l1 1v1l1 1 1 1v4l-1-1h-2l1 4v2l1 1v1l1 2 1-1h1l1 5-2 1 1 5 1 4h2v3l-1 1v10l1 1 2 3-1 2v3l2 2v2l1 2v2l1 1v4l-1 1v1l2 2q-2 3 0 7v1l1 1v2l1 1v3l-1 1h1v1l1 1 1 3v2l1 1v7l2 8v7l1 2 1 4v2l1 1v2l1 3-1 1h-1v1l1 5 1 4 1 1h1l1 3v4l1 1v4l1 1v2l1 2-1 1h1l1 6-3 1v-2l1-2v-1l-1-1h1l-1-1v-1l-1-1v2l-1 1v-7l-1-2v-1l-1-3-1-1h-1v-8l-1-2v-2l-1-1v-5h-1v-3l-1-1v-3h-1v-2l-1-3v-10l-1-2v-4l-1-3v-1l-1-2-1-2 1-1v-1h-1v-1h1v-1l-1-2v-1l-1-2v-2l-1-3v-9l-1-1v-5l-1-2v-1l-2-4v-1l1-1-1-2-1-2v-7l-2-2 1-1v-4l-1-3-1-1-1-2 1-1v-2l-2-5v-5l-1-3-1-6-1-3-1-3v-1l-1-1-1-2v-1h-1v-5l-1-6v-3l2 2v1l1 1-1-2 1-1h1l1-1v-2l-3-8v-2h-1v-1l-1-1v-3h-1v-1l-2-1-1 1-2-3-1-3v-3h-1l-1-1-1-2v-3h-1 1-1v-1l-1-1h-1l-1-1v-3h-1v-1h-3q-3 0-5-3v-1l-2-2-1 1-2 1-2-1h-1l-2-2v2q-3 1-3-2l-4 1h-1l-2 1-1 1-1 1h-1l-1 1-1 1-2 2-1 1-1 1-1 1-1 1-1 2-1 2-1 1v1l-1 1v1h-1l1 1h-1l-1 4v1l-1 1v2h-1v4h-1v3l-1 1v3l-1 1v2l-1 1q0-1 0 0v2h-1v3h-1v5h-1v3l-1 1h1l-1 6v4h-1v3l-1 2v4l-1 2h1-1v9l-1 3-1 2v4l1 6v5l1 6v3l1 11v6l1 2 1 4v2l1 6 1 5v1l1 1v7l1 4v1h1v1l1 2-1 2 1 2-1 2 1 4 1 3v2l1 1 2 7v4l1 3v6l1 5 1 2v8l1 2v1l1 1 2 1 2 2h1l2-1v-3l2 1 1-2 2 1h2l1 2h1l1-3v-1l1-2-1-3v-4l-1-1-1-1-1-5v-5l-1-1 1-1-1-3-1-3-1-2 2-1 2-2 1 1h1v-2h-1v-1l5-1 8-1 9-1h2v-1l-1-1h-3l-1-1h4v-1h4l1-2 3 1v-2l1-1v2h1l1 1v-1h2-1 1l2-1 2 1v2l1 1h1v3l-1 1 1 1v4l1 3 1 1 1 1v7l1 1v1l1 4v5h1v1l1 1v-4l1 3v3l-1-1h-1l1 6 1 3 1 3v2l1 7v1h1v3h2l3 2 1 3v1h2v-1h1l2 1 1 1 1 1-1-2v-3l1-1v-1l-1-2 1-2v2l1 1h1l1-1-1-1 1-2 1 2 1-1 1-1 1 3 1 1v3l2 1v-7l1-1-1-1v-1l-1-2 1-1 1 1 1 1 1 1h2l1 2h-1q1 0 0 0l-1 1v1l1 1h1l2-1zm-61-233q-1-2-2-1v1zm-35 14l3-3v1l-1 1zm3 8l1-2 3-2v3l-1 1v1l-1 1q1 0 0 0v3l-1 1v3h-1v2l-1 2v2h-1v1h1l-1 2v1l-1 1v1l-1 1 1 3-1 1v1l-1 1v1l-1 2v4h-1q1 0 0 0v6l-1 1-1 1 1 3v1l-1-1-1 6h-1l1 1v1l-1 1v8l-1 1v9l-1 2 1 2-1 1 1 3v6l-1 2v1l2 2v3l1 5 1 6h-1v2l1 2 1 3v2h-1l-1 1h-1l1 1h1l3 7-1 1-1 1v1l-1 2 1 2 1-2v-1l1-1 1 1v2l-1 1 2 3v6h-1l-1-1v-2l1-1-1-1h-1l-1 3-1-2v-1l-1-2v-3l-1-1v-2l-1-1v-6l-1-2v-6l-1-2v-1l-1-2v-3l-1-3-1 4-1-1v-2l-1-4v-13h1v1l1-2-1-3v-1l-1-1v-16l1-5v-3l1-2v-2l1-2v-3l1-1v-4l1-3 2-1v-7l1-1v-3l1-1 1-2v-5l1-1v-2h1v-4l1-1v-3q2-1 2-3v1l1 1h1l1-2-1-1h-1q0-3 3-3zm46 120l1 4v2h-1l-1-1v5l1 1v8l-6 1-1 1q0-1 0 0h-7l-1 1-12 1h-2l-1 1h-9v-3l-1-1-1-2v-4h-1v4l1 3h-1l-1-1-2-1-1-4-1-1h-1l-1-8q-2-6-1-8v1l2 1v-1l-1-2-1-4v-4l-1-1q0-1 0 0v-1l1-1 1-1h4l-1-1v-1l-1-2v-1h-1v-1l-1-1 1-1v-1h1v-25l1-3-1-5 1-1v-6q1 0 0 0l1-1v-4l1-2v-1l1-3v-5l1-2 1-1v-1l1-2v-1l1-1 2-11v-1l1-1v-3h1v-4l1-1v-2h1v-1l1-2v-1l1-1v-1l1-1h2q1-1 3 3l1 1v1l1 1 1 1v1l1 1v1l1 2 1 3v1-1l1 2v1l1 1v2l2 4v3l1 1v3h-1 1v2l-1 2 1 2v3l1 2v4l1 3 1 3 1 3 1 1 1 2-1 1-1 1 1 4 1 5 1 3v3l1 4 1 9-1-1q0-1 0 0v-1l-1-1-1 1v1l1 3v6l1 1 1 5 1 5v2l1 4 1 5 1-1zm1-109v4h-1v-2zm2 8l1 1v1zm-6 6l1 2-2 1-1-1v-1l-1-1v-4l1 1v2l1 1zm10 10v-2q0-1 0 0l-1 1zm-5 4q2 0 1 4l-1-3-1-1zm3 27l-1 1-1-1 1-1-1-1-1-4v-4l-1-2v-3l-2-3v-3l1-1 1-2v2l1 2v3l1 1v3l1 2v4l1 3zm5-25l-1 1 1 1v-1zm-62 18h1v1zm59-5v2l-1 1-1-2v-2h1zm9-2l1 2q0 1 0 0zm-8 15l1 1-2-1zm5 28h-1v-2q-3 0-4-2v-3h-1v-1l-1-1v-1l-1-2v-3l-1-2v-2l2-3v-3l1 1h2l-1 1v7h1l1-1v3l1 1v3l1 1 1 1-1 3v1l1 2zm-3-8l1-2-1-2-1-1v5l1 1zm-15 7l1 1q0 1 0 0zm15 1l1 2-1 1-1-3zm5 13l1 2-1 1-1-1v-3l-1-10v1l1 1v1l1 1v6zm-62 5v-3l-1-2q-1 5 1 5zm-12 11v2h-1v-1l-1-2v-4l-1-3v-2l-1-1 1-3v3l1 1v4l1 1v2zm71-14l1 1h-2 1zm1 4zm-72 14v-1zm1 3v1h-1zm59-1l1 2v4l-1-1 1-1q-2-2-1-4zm-42 12v3l-1-2v-1zm-4 2h1q0-1 0 0zm35 13h-1l-1 1 1 1 1-1zm-31 5h2l-1 1zm-1 13l-1 2v1l-1-1v-1l-1-5v-3l1 2v1h1v2l1 1zm52 2l1 2v1l-2-2zm-46 11q2 1 1-1l-1-2zm74-9l1 1v2l-1-1zm78-174l1 3v6l1 3v3l1 5v5h1l-1 2v10l1 2v12l-1 4v16l-1 5v3l1 6-1 3v21l-1 10v9l1 8v8l1 4v4l-1 3v2l1 4v27l-1 5-1 2v4l-1 1-1 1v2l-2 2-1 1q-5 1-6-1l1-2 1-2-2-1-2-2-1 3 1 1v1l-1 1-1 1v1h-4l-1-2-3-2h-2v-1l-2-2-1-1h-2l-1-1v-2q1 0 0 0l1-1v-1l1-1v-2l1-1-1-2h1v-3l1-2h2l1-1v-1l1-1 1-3v-1l-1-2-1-1v-3l2-1-1-6 1-1-1-1 1-2-1-2v-8l1-2-1-1 1-3v-2l-1-5v-22l-1-3-1 1-1 1v1h-2v1l-1 1h-1l-1 1h-3l-1-2-2 1h-2l-1-1-2-1h-1q-2 0-3-2v-1l-1 1h-5v-1h-1v-1h-1l-1-1-1-1-1-1h-1v-1l-1-1v-1h-1l-1-1v-1h-1v-2h-1v-2h-1l-1-1 1-1-1-2-1-1-1-1-1-1h1l-1-1v-1h-1v-2h-1v-2l-1-1-1-3v-1l-1-2v-1l-1-2-1-2v-2l-1-1v-2l-1-4-1-3v-1h-1l1-3h-1v-2l-2-6v-2l-1-4v-2l-1-4-1-6-2-7v-2h-1v-6l-1-3v-5l-1-2v-6h-1l1-2-1-1v-6l-1-2v-2h1v-4l-1-4v-4l-1-6v-2h1l1-1 3-1v-1l1-1q1-1 2 2l1-1h2l1-1h2v1h2l1 1 1 2h2l2 2v3l1 2v7l1 3v6l1 3v3l1 6v4l3 13v4h1l-1 2h1v6h1l1 4 1 5v2h1v3l1 3 1 5 1 2v4l1 1v3l1 1v2h1v3l1 1v1l2 5v1l1 2v1l2 2 1 1h1v4l1 2v1h4l1-1v-2h1v-3l2-1v-2l1-1v-3l1-2v-3l1-1v-2l2-3v-1l1-2v-1l1-1v-6l1-3v-2l1-1-1-3 1-2h-1l-1-1v-4l1-1 1-1h2l1 3-2 2v5l1 2-1 2v4h1v7l-1 3v4l-1 1 1 1v-3l1-1v-5h1v-3q0-1 0 0v-1l1-2v-2q0-2-2-2l1-1h1l1-1v-25l-1 2-1 3-1-1v-2h-2v-6l-1-1 1-2v-18l-1-10 1-9v-6l2-1v-2l1-1q0-1 0 0l1-1v1l1 1h1v-2h2l1 1 1 2 1-1v-3h1v-1l1-1h-1l2-1 1 1 2 2h2v3h2l2 4-1 2v10l1 2v5h1v2l1 2zm-23-21v3l1-2zm6 5v-4l-1-1v4zm-7 15v1l2-1h-1zm0 12v2h2l2 2 1-1-1-2v-8l-1-2-1-2v2l1 1-1 2-1 1q-2 0-1 1v3zm0 10h2l2-1q1-3-1-4v4l-2-1zm-54 7l1-2h-1zm6 23l1 1q0-2-1-1zm42 20v-2zm-32 14q0 2 1 1zm52 6v-2h-1v11l1 3h-1v6l1 4-1 1v13h-1v1l1 1 1 1h-1l-1 1 2 3v21l1 2 1-3v-11l-1-2v-6l1-1-1-2v-21l-1-2v-17zm-39 18v1l1-1zm40 51v4l1-2zm-8 43q3 0 2-3l-2 1zm148-20l-1-4h-2l-1-2v-1l-1-3v-2l-1-2h-1l1-2v-14l-1-4v-2l-1-1v-2l-1-2h-1v1l-1-3h1v-6l-1-5h-1v-1h-1v-4h-1v-2 1l1-1-1-8-1-3v-5l-1-3v-5h-1v-5l-1-3v-4l-1-2v-5l-1-5-1-2v-5l-1-3v-2l-1-4v-1l-1-3v-5l-1-4-1-3h-1v1l-1-4v-3h1v-1l-1-8-2-8v-1l-1-1h-1l-1-2-1-4v-2l-1 1v-7l-1-1-1-1v-3l-1-2-2-1v3l1 4v3l1 2h-1l-1 1v1h2l1 2v1l1 1 1 1v4l-1-1-2-1 1 5 1 2v2l1 2 1-1h1l1 5-2 1 1 5 1 3 1 1 1-1v4h-1v11l1 1 2 2-1 3 1 3 1 1v3l1 1 1 2v7l-1 1 2 2q-2 3 0 7h1l1 1-1 3 1 1v4q0-1 0 0l1 2 1 2v2l1 1v2l1 4-1 1 2 8v2l1 2h-1v3l1 3 1 4v2h1v3l1 3-1 1h-1v1l1 4 1 5h1v1h1l1 3v3l1 2v4l1 1v2l1 1-1 2h1l1 5q-1 2-2 1l-1-1 1-2v-2h-1 1l-1-1v-3l-1 2-1 2v-4l1-1h-1v-3l-1-1v-1l-1-3-1-1-1-1v-8l-1-1v-2l-1-2 1-3-1-1-1-1v-2l-1-1v-3l-1-1v-7l-1-2v-7l-1-2v-2l-1-3v-1l-1-3v-6l-1-1v-1l-1-3v-1l-1-3v-10h-1v-3l1-2-1-1-1-1v-1l-2-4v-1l1-2-1-2-1-1v-7l-1-2v-5l-1-3v-1l-2-2 1-2v-1l-1-5v-1h-1v-4l-1-3-1-7-1-3-1-2v-1l-1-2-1-1v-1l-1-1v-4l-1-6v-3l2 1v2l1 1v-4l1 1 1-1v-3q0-3-3-7v-2l-1-1q1 0 0 0v-1h-1v-3l-1-1v-1h-3q0 1 0 0l-2-2-1-3v-3h-1v-2l-2-2v-2h-1l1-1-1 1v-1l-1-1-1-1h-1v-3l-1-1h-2v-1h-1q-3 0-5-2v-2l-2-1-1 1-1 1h-1v-1h-2l-1-1-2-1v2q-2 0-3-3l-4 1h-1v1h-2v1h-1v1h-1l-1 1-1 1-1 1-2 2-1 1h-1l-1 1-1 1-1 2-1 2-1 2v1l-1 1v1l-1 1-1 3v1l-1 1 1 1h-1v3h-1v3h-1v3l-1 1v3l-1 1v2l-1 1q0-1 0 0v2h-1l1 1h-1v2l-1 1v4h-1v4l-1 5v4l-1 1v4l-1 1v6h-1l1 3-1 2v3l-1 3v18l1 5v4l1 10 1 6v3l1 3v3l1 6 1 5v1l1 1v2l1 5v4l1 1 1 2v6l1 5v4l1 2 2 7v4l1 3 1 5v6l1 1v9l1 2 1 1v1h2l2 2 1 1q2 0 2-2v-2h2l1-1 2 1h2l1 1 1 1 1-4v-1l1-1v-3l-1-5h-1v-1l-1-5-1-5-1-1 1-1-1-3-1-3v-2l1-2 2-1 1 1h1v-2l-1-1 5-1 9-1 8-1 2-1 1-1h-2l-2-1h-2 2l1-1h1l4-1 2-1h2v-1l1-1v1l1 1 1 1v-1h2v-1h4v3h1l1 1v3l-1 1 1 1v3l1 3v1h1l1 1v5l1 3v2l1 4v3l1 1v2h1v-1l1-2v5h-2l2 5v4l1 2v3l2 7-1 1h1v3h3l2 2 1 2v1l2 1 1-1v-1l3 2v1l1 1-1-2v-2l1-1v-2l-1-2 1-2v1l1 2h1l1-1v-3l1 1h1l1-1 1 2 1 2v1l1 2h1l1-1-1-2v-4l1-1h-1v-1l-1-2q0-2 2-1 0-1 0 0l1 2 1 1h2l1 2h-1q1 0 0 0l-1 1v1l1 1 1-1h2zm-61-234h-2l1 1h1zm-35 14l3-2v1l-1 1zm3 9l1-2q1-2 3-2v2l-1 2v1l-1 1q1 0 0 0v2l-1 2v3h-1v2l-1 1v4l-1 2-1 1v2l-1 1 1 3-1 1v1l-1 1v1l-1 2v3h-1v1q1 0 0 0v6h-1l-1 2 1 2v1h-1l-1 5h-1l1 2v1l-1 1v3l1 1-1 1v3l-1 1v5l1 4-1 2v1l-1 1 1 4v6l-1 1 1 1 1 3v3l1 5 1 5h-1v2l1 3 1 3v1l-1 1h-2l1 2h1l3 6-1 1-1 1v2l-1 1 1 2 1-1v-2h1l1 1v3l1 3v6l-1-1v-1l-1-1 1-1-1-1-1-1-1 3-1-1v-1l-1-3v-2l-1-1v-3l-1-1v-8l-1-2v-3l-1-2v-2l-1-2v-2l-1-4-1 4-1-1v-5l-1-2v-12l1 1 1 1v-2l-1-3v-1l-1-1v-14l1-2v-6l1-1-1-2 1-1q0-1 0 0v-1l1-1v-4l1-1v-5l1-3 2-2v-6l1-1v-4l1-1 1-1v-5l1-1v-2h1v-5l1-1v-2q2-1 2-3l1 1v1l1-1 1-1-1-1q0-1 0 0l-1-1q0-2 3-2zm46 120l1 3v3h-1v-1l-1 5 1 1v2l1 4h-1v2l-6 1h-2l-1 1h-5l-1 1-12 1h-3l-2 1h-7v-3l-1-2-1-1q2-4 0-4h-1v2l1 2v2l-1 1-1-1-2-1-1-5-2-1-1-8q-2-5-1-8v2l2 1v-2l-1-2v-4l-1-1v-3l-1-1v-1l1-1h5v-2l-1-1-1-1v-1l-1-1-1-1 1-2 1-1v-25l1-3v-4l-1-1 1-1v-5q1 0 0 0v-1h1v-4l1-2v-2l1-3v-2l1-2 1-2v-3l1-1v-2h1v-1l2-10v-1l1-1v-3l1-1v-2l1-1v-2h1l-1-1 1-1 1-1v-3l1-1v-1h1l1-1h1l4 4v1l1 1 1 2q1 0 0 0l1 2 1 2 1 4 1 1v1l1 2v1l2 5v1l1 1v11l1 2v6l2 4v3l1 3 1 1 1 2-1 1v5l1 4 1 3v4l1 4 1 8q0 1 0 0l-1-1v-1h-1l-1 1h1v7l1 2v2l1 5 1 4v2l1 5 1 4zm1-109v4l-1-1v-1zm2 8l1 1v1zm-6 5l1 2-1 2-1-2-1-1-1-2v-3l1 2v2zm10 10l1-1h-1l-1 1zm-5 5q2-1 1 4l-1-3zm3 26l-1 1q0 1 0 0v-2q-1 1-1-1l-1-3v-5l-1-2v-2l-2-3v-3l1-2 1-2v3l1 2v3l1 1v2l1 3v4l1 3zm5-24q-1-1-1 1l1 1v-1zm-62 18zm59-6v4l-1-2-1-3 1 1zm10-1zm-8 14v1l-2-1zm4 29h-1v-2l-4-2v-3h-1v-2h-1v-2l-1-1v-4l-1-1v-3l2-2v-3q0-1 0 0l1 1h1l1-1-1 1v8l1-1h1l1 1-1 1 1 2v2l2 2v4l-1 1 1 2zm-2-9v-2l-1-1-1-1v5h1zm-15 8v1q0 1 0 0zm14 0l1 2v2q-2-1-2-3zm6 14v1l-1 1-1-1v-1l1-1-2-10 1 1v2l1 1v6zm-63 5l1-3-2-3q-1 6 1 6zm-12 10v3l-1-1-1-3v-4l-1-2v-6 3l1 1v3l1 2v2zm71-13l1 1h-1l-1-1zm1 4zm-72 13zm1 4v1l-1-1zm59-2l1 3v2q-2-3-1-5zm-42 12v3l-1-2zm-4 2h1v1h-1zm35 14h-2l1 1h1zm-31 5h1l1-1-1 1zm-1 13v1l-1 2v-1h-1v-2l-1-4v-3l1 2 1 1v2h1zm52 1l1 2v2l-2-3zm-46 12l2-1-2-2zm74-10l1 2v2l-1-1zm75-204v1q-1-1 0 0v1l1 1v3h-1l-1 1v1h-1v1l-1 1h-1l-2 1h-2l-5 1-6 1-6 2h-2l-2 1h-7l-1 1v1l1 1v1h1v6l1 2v5l1 6v2l-1 1q1 0 0 0l1 2v3l1 2-1 2v1h1v1l1 2v6l1 1h-1v1h-1l1 1h-1l1 4-1 1 1 1 1 1 1 1v4l-1 1 1 1v3l1 1v2l-1 1v3l1 3 1-2h-1l1-1-1-2v-1 1h1v1l1 3v3l1 3v5l1 3 1 2v4l1 3v4l1 2-1 2v1l1 4v5l1 3v3l1 2 1 5v4l1 4 1 1v8l-1 1h-1q1 1 0 0l-1-3 1 3h-1v1l1 2v2l1 4h2v2l1 1 1 1-1 2v1l-1 1v7l1 3h2v6l-1-1-1 2 1 2 2-1v7l2 6v4h-1l-1-1v3l1 4v3l-1 1h-1v1l-1-1-1 1h-1l-1-2h-1l-1-2v-1q-2 0-2 2l-1 1v2l-1 1h-1l-1-2h-2l-3-2v-2l-1-2-1-2-2-3-1-2 1-3v-1h-1v-7l1-2-1-4v-1l-1-2v-6l-1-2-1-5v-4l-1-3v-13l-1-1-1-1v-4l-1-2v-9l-1-6v-4l-2-9-1-4-1-6-1-4v-5l-2-7v-2l-1-7v-2l-1-2v-1l-1-4v-10l-1-3v-7l-1-1v-7l-1-8-1-4-1-11-1-5h-2q0-1 0 0h-1l-5 2h-2l-7 2-3 1h-1v1l-2 1-4 1h-1v-3h-2l-1-1 1-1q0-2-2-3h-1l-2-1-2-1v-3l-1-3h1v-1l2-1 2-1 2-1v-1h1l1-1 3-1 1-1 1-1h1l2-1h2l5-2 8-2 8-2h3l2-2h2l2-1h4v-1h3l3-2h5l2-1h2l4-1 7-1q2-2 3-1l3 1-1 1-1 1 1 1h3v2l2 1 4-1v3h2l1 1 1 1zm-25 122v1l-1 1 1 1h1v-2zm4 12l-1-2-1-4-2-1 1 2v4l1 1 1 1h1zm5 32v2q0 1 0 0l-1-1z"/><path d="M965 495h2v4l-1 3v3l-1 2v7h-1 1l-1 1v2l-1 1v3l-1 1-1 1-1 1-1 1h-1l-2 2h-5v-1h-4v1h-6v-1h-1l-1-1-1-1-3-2-1-1-1-1-1-1v-1l-1-1-1-2-1-1-1-1v-1l-1-1-1-1v-1l-1-1v-1h-1v-2h-1v-2l-1-1-1-2h-1v-2l-1-1v-1h-1v-1l-1-3h-1v-1l-1-1v-2l-1-2v-1l-1-1-1-2v-3l-1-1-1-2-1-3h-1v-2l-1-1v-1l-1-1-2-4-1-1v-1l-1-2v-2h-1v-1h-2l-1-2-2-2-2-1-1-2-1-1-2-2h-1l-1-1-2-1-2 1-2-2-2-2h-2v-1l-2 1v1l1 4v4l1 2v2l1 8 2 8v1l1 2v4l1 1v1l2 7 2 6 3 12v1l1 1v1l1 3v2l1 1 1 3 1 2v7l-2 2-1 1h-2v1l-1 1v1h-1l-1-2-1-1-1-1-1-2-1 1h-1v-1h-1v5q-2 0-2-2l-1-1-1 1h-1l-1-1-1-1v-2l-1-3-2-1v-3l-1-2v-4l-1-4-1-2v-2l-1-1v-2l-1-5-1-1v-5h-1l-1-2v-6l-1-1v-3l-1-1v-2l-1-1-1-4-1-4v-4l-1-1v-4l-1-2-1-5v-3l-1-2 1-1-1-2-1-7v-1l-1-6-1-1v-6l-1-11v-12l-1-4-1-2v-6l-1-11-1-3-1-2-1-10v-2l-1-1v-8l-1-1-3-12-1-6-1-1v-3h2l1 1 1 1v1l2-1v-1l1-1v-1l1-2 1-1v-3l2-2 1-1 3-2v-1q1 0 0 0h1v-1h1q0-1 0 0h1v-1l1-1h1v-1l4-1h2l2-1h2l2-1h2l2-1v1h1l1 1 1-1v1h6l1 1h3l2 1 2 1h2l1 1 1 1 2 1 2 2v1l2 1 1 1v1h1v2h1v1q0-1 0 0l1 1 1 2 1 2 1 1 1 3v2h1v1l1 1v2l1 2v1h1v1l1 3v2l1 4 1 2v1l1 5v9h1l-1 2 1 8v4l1 2v7l1 2-1 5v11h-1v7l-1 1v2l-1 1-1 1-1 2-2 2-1 2-1 1-1 2-1 1-1 1h-1l-1 1-1 1-2 1 1 2 2 2 1 2 2 1 1 1 1 1 1 1h3l1-1h1v1h1v2h1v1l1 1 1 1 1 1v1l1 1v1l1 1 1 1h1l3 5 1 2 1 2v1h1v5h1v1h1v1l1 2v1l1 1v2h1l1 2v3h1v2l2 2v4l2 4 1 1h1l2 3 2 5 1-1 1-1v2q1 1 2-1v-2h1v-2l1-1 1-1v-2h1v-2l1-1v-1l1-2q0-2 2-2v4l-1 3 1 3v2l1-1v-1l1-1v3l1 3 1-2 1-1 1-2zm-72-113l2 1v1l1-3v-7l-1-1 1-3-1-2v-3l-1-4v-10l-1-1v-2l-1-1v-4h-1v-2l-1-1v-1l-1-2-1-2v-2l-1-1-1-1-1-2h-1q0-1 0 0v-1l-3-1-1-1h-3l-3-1-5 1h-1v1h-2v1h-2l-1 2v2h-1v6l-1 2v4l1 2v7l1 2v4l1 3 1 9 1 7 2 6v4l2 9 1 13v2l1 3v7l1 5h2l1-1 1-1 1-1h3l1-1h1l1-1 1-1 1-1 1-1v-1l1-1v-1l1-1v-1l1-1v-1l1-2 1-2v-5l1-2v-16zm-46-26l1 5v-4zm2 10zm5 27l-1-1v-3l-1-2v-5h-1v-5l-1 2 1 2 1 5v4l1 3v4h1v2l1 1-1-5zm24 85v-1zm4 10l-1-1 1 3v3l1 1v-1l-1-3zm2 10v-1l-1-1v1l1 1 1 1z"/><path d="M991 289h1l2-1v1l-3 3-2 1-2 1v1l-1 2q-3 3-5 1l-1 1-1 1-7 1-5 2v2l1 5 1 2v7l1 1 1 8 1 3v5l1 3 1 1 1 1v4l1 3v2h2v2l2 5v6l1 3 1 2 1 2v3l1 3v4q2 2 1 4l1 5 1 5v7l1 2v2l1 6v2l1 5v2l1 4v4l1 2 1 6v1l1 2v6l1 1v4l1 5 1 2v4l1 2 1 7v2l1 4 1 3q1 3-1 4v2h-1v2l-1 1q0-1 0 0l-1-1h-3l-2 1h-7l-1 1v2h-2v-1l-2 1h-2l-2-1h-1l-1 1h-2l-1-1h-2l-1-1h-1v-1h-3l-1-1-1 1-3-1v-1l-1-1v-4l2-1v-3l1-1 2-1 1 1q1 1 3-1l-1-1v-1h2v1h3l-2-3-1-2h1l1-1-1-7-1-9v-3l-1-5-1-3-2-16v-2l-1-9-1-2-1-5v-4l-1-4v-2l-1-3-1-5 1-2v-4l-1-1 1-2-1-2 1-1v-1l1-1v-4l-1-2v-5l-1-2v-2q1-1 0 0v-1l1-1v-3l1 1 1 1 1 3v3l1 2v1l1 2v4l1 2v4l1 5 1 2v5l1 4v6l1 3v5l1 1v4l1 2-1 2 1 2 1 4 1 1q1 0 0 0v5q0-1 0 0h2l-1 1 1 1-2 1 1 3 1-1 1 1 1 2v2l1 4v1l1 1v-4l-1-2v-6l-1-1v-7l1-1 1-1-1-3v2l-1 1h-1l-1-1v-8l1-1 1 3 1 3 1-1v-3l-1-2-1-1 1-2-1-2v-5l-1-1h-2v-1l-1-4v-3l2 1v-3l-1-6v-1l1-1v-2l-1-1h-1v-3l-1-3v-3l-1-5-1 1v-2h2l-2-5-1-4v-5l-1-3-1 1v1h-1v-3l-1-3-1-4v-1l-1-1v-4l-1-2-1-3-1-3v-8l-1-3v-1l-1-4-1-3v-2l-2 1-2 1-1 1h-1l-1 1h-1l-2-1h-1v-1l-1-2v-2h-2v-1l1-1-1-2 1-1v-2l-1-2-2 1-2 2h-4l1-1v-1l-1-1 1-1v-2l2-1h1v-1l4-1h1l1-1 1-3 1 1h2l1-1v-2h5l1-1h1l1-2 1 1 2 1h2l3-1 4-2 1 1 1-1 3 2v2l2 1h2q0 2-3 2l-3 1 1 1 1 1h1l4-2v1l1-1h3l2 1v-1l1-1 1 2h2zm-53 6q2 0 1-2h-1 1l-1 1zm31 43l1-2v-3l-1-4-1-1 1-1v-1l-1-1-1-2v-5l-1-4-1-1v3l1 2-1 2 1 2v3l1 3v1l1 5v2zm-13-3v1l-1 1v1l1 1h-1v-2l-1-2v-1h2zm13 5v2q0 2 2 1l-1-4zm-12 8l-1-2v-4h1zm16 7v-1l-1-1v1q0 2 1 1zm-5 2v-1zm2 9l-1-2v-2l2 2-1 1zm6 7v2h-1v1l1 1 1 1v1l-1 2v1l1 2v14q1 0 0 0l1 1h1v3l-1 1 1 1v3l1 2v2l2 1-1 2v2l1 3 1 4 1 3v6l1 4 1 6 1 4v4l1 1v2l1-3-1-3-1-5-1-6v-6l-1-1v-3l-1-4v-4l-1-1 1-1v-1h2v-2h-1v-2h-1 1-1v-1l-1-1v-1l-2-4v-13h-1l-2-2 1-2v-4l-1-2v-3l-1-1-1-2zm-6 4h1l-1 1zm-2 7l1 3-1 1zm1 6l-1-1zm7 10l-1-1v1zm-1 6v2h1l-1 2-1-2zm-4 5l-1-2 1-2 1 2zm1 5l1 1v4l1 2-2-1v-4zm16 13l-1-2v2zm2 32zm1 7v2l1 2v-3l-1-1q0-1 0 0zm-29 21h2q2 1 1 2-3 1-3-2z"/></g></svg>