<svg xmlns="http://www.w3.org/2000/svg" width="1000" height="1000" version="1"><g stroke="#76d6d9" stroke-linecap="round" stroke-width="53"><g stroke-linejoin="bevel"><path fill="none" d="M542 369a75 75 0 0 0-73 89l79 412a75 75 0 1 0 146-28l-78-412a75 75 0 0 0-74-61z" color="#000" font-family="sans-serif" font-weight="400" overflow="visible" white-space="normal" style="line-height:normal;font-variant-ligatures:normal;font-variant-position:normal;font-variant-caps:normal;font-variant-numeric:normal;font-variant-alternates:normal;font-feature-settings:normal;text-indent:0;text-align:start;text-decoration-line:none;text-decoration-style:solid;text-decoration-color:#000;text-transform:none;text-orientation:mixed;shape-padding:0;isolation:auto;mix-blend-mode:normal"/><path fill="#fff" d="M960 350a252 277 5 0 1-246 285 252 277 5 0 1-258-264A252 277 5 0 1 700 83a252 277 5 0 1 260 261"/></g><path fill="#fff" stroke-linejoin="round" d="M441 130c-85 156-75 275-85 406 35-20 74 5 286-188m0 0c47 153-5 323-125 410a280 280 0 0 1-379-42 386 386 0 0 1-52-430c72-139 219-204 355-156"/></g></svg>
