<svg xmlns="http://www.w3.org/2000/svg" width="1000" height="1000" version="1"><path fill="#76d6d9" d="M981 333a264 290 5 0 1-259 299 264 290 5 0 1-270-277A264 290 5 0 1 708 53a264 290 5 0 1 273 274"/><path fill="#76d6d9" style="line-height:normal;font-variant-ligatures:normal;font-variant-position:normal;font-variant-caps:normal;font-variant-numeric:normal;font-variant-alternates:normal;font-feature-settings:normal;text-indent:0;text-align:start;text-decoration-line:none;text-decoration-style:solid;text-decoration-color:#000;text-transform:none;text-orientation:mixed;shape-padding:0;isolation:auto;mix-blend-mode:normal" d="M543 352a78 78 0 0 0-77 94l82 432a78 78 0 1 0 154-29l-82-432a78 78 0 0 0-77-65z" color="#000" font-family="sans-serif" font-weight="400" overflow="visible" white-space="normal"/><path fill="#ff99bf" d="M437 102c-90 163-80 289-89 426 36-21 77 5 300-197m0 0c49 161-6 338-131 430a294 294 0 0 1-398-45 404 404 0 0 1-55-450c76-146 230-214 373-164"/></svg>
